<?xml version="1.0" encoding="UTF-8"?>
<!DOCTYPE svg PUBLIC "-//W3C//DTD SVG 1.0//EN" "http://www.w3.org/TR/2001/REC-SVG-20010904/DTD/svg10.dtd">
<!-- Creator: CorelDRAW 2021.5 -->
<svg xmlns="http://www.w3.org/2000/svg" xml:space="preserve" width="85.845mm" height="63.85mm" version="1.0" shape-rendering="geometricPrecision" text-rendering="geometricPrecision" image-rendering="optimizeQuality" fill-rule="evenodd" clip-rule="evenodd"
viewBox="0 0 8584.5 6385"
 xmlns:xlink="http://www.w3.org/1999/xlink"
 xmlns:xodm="http://www.corel.com/coreldraw/odm/2003">
 <g id="Layer_x0020_1">
  <metadata id="CorelCorpID_0Corel-Layer"/>
  <g id="_2683310658720">
   <polygon fill="white" points="-0.33,7.91 8584.13,7.91 8584.13,6392.89 -0.33,6392.89 "/>
   <g>
    <polygon fill="black" fill-rule="nonzero" points="746.51,3610.2 746.51,2805.21 909.54,2805.21 909.54,3122.26 1226.58,3122.26 1226.58,2805.21 1389.61,2805.21 1389.61,3610.2 1226.58,3610.2 1226.58,3258.3 909.54,3258.3 909.54,3610.2 "/>
    <path fill="black" fill-rule="nonzero" d="M4879.83 1008.23c0,-82.08 12.37,-151.03 36.92,-206.87 18.17,-41.04 43.28,-77.95 74.95,-110.56 31.67,-32.6 66.33,-56.78 104,-72.7 50.22,-21.18 108.12,-31.86 173.7,-31.86 118.8,0 213.62,36.92 285.01,110.56 71.2,73.83 106.81,176.32 106.81,307.68 0,130.23 -35.42,232.16 -106.06,305.62 -70.64,73.64 -165.27,110.37 -283.51,110.37 -119.74,0 -215.11,-36.54 -285.76,-109.81 -70.64,-73.08 -106.06,-173.89 -106.06,-302.43zm167.52 -5.44c0,91.26 21.18,160.4 63.34,207.62 42.16,47.03 95.75,70.64 160.58,70.64 65.03,0 118.24,-23.42 160.03,-70.08 41.6,-46.84 62.4,-116.92 62.4,-210.43 0,-92.38 -20.24,-161.33 -60.9,-206.68 -40.48,-45.53 -94.26,-68.21 -161.53,-68.21 -67.08,0 -121.23,23.05 -162.27,68.96 -41.03,46.1 -61.65,115.43 -61.65,208.18z"/>
    <polygon fill="black" fill-rule="nonzero" points="2847.74,5814.55 2847.74,5009.56 3010.77,5009.56 3010.77,5326.61 3327.81,5326.61 3327.81,5009.56 3490.84,5009.56 3490.84,5814.55 3327.81,5814.55 3327.81,5462.65 3010.77,5462.65 3010.77,5814.55 "/>
    <path fill="black" fill-rule="nonzero" d="M7055.91 3212.58c0,-82.08 12.37,-151.03 36.92,-206.87 18.17,-41.04 43.28,-77.95 74.95,-110.56 31.67,-32.6 66.33,-56.78 104,-72.7 50.22,-21.18 108.12,-31.86 173.7,-31.86 118.8,0 213.62,36.92 285.01,110.56 71.2,73.83 106.81,176.32 106.81,307.68 0,130.23 -35.42,232.16 -106.06,305.62 -70.64,73.64 -165.27,110.37 -283.51,110.37 -119.74,0 -215.11,-36.54 -285.76,-109.81 -70.64,-73.08 -106.06,-173.89 -106.06,-302.43zm167.52 -5.44c0,91.26 21.18,160.4 63.34,207.62 42.16,47.03 95.75,70.64 160.58,70.64 65.03,0 118.24,-23.42 160.03,-70.08 41.6,-46.84 62.4,-116.92 62.4,-210.43 0,-92.38 -20.24,-161.33 -60.9,-206.68 -40.48,-45.53 -94.26,-68.21 -161.53,-68.21 -67.08,0 -121.23,23.05 -162.27,68.96 -41.03,46.1 -61.65,115.43 -61.65,208.18z"/>
    <polygon fill="black" fill-rule="nonzero" points="2849.43,3610.2 2849.43,2805.21 3007.21,2805.21 3338.5,3344.68 3338.5,2805.21 3489.15,2805.21 3489.15,3610.2 3326.32,3610.2 3000.09,3081.03 3000.09,3610.2 "/>
    <polygon fill="black" fill-rule="nonzero" points="4950.66,3610.2 4950.66,2805.21 5108.44,2805.21 5439.73,3344.68 5439.73,2805.21 5590.38,2805.21 5590.38,3610.2 5427.55,3610.2 5101.32,3081.03 5101.32,3610.2 "/>
    <polygon fill="black" points="3716.52,3275.1 4723.28,3275.1 4723.28,3140.3 3716.52,3140.3 "/>
    <polygon fill="black" points="1615.29,3275.1 2622.05,3275.1 2622.05,3140.3 1615.29,3140.3 "/>
    <polygon fill="black" points="5817.75,3275.1 6824.51,3275.1 6824.51,3140.3 5817.75,3140.3 "/>
    <polygon fill="black" points="5203.12,1574.76 5203.12,2581.52 5337.92,2581.52 5337.92,1574.76 "/>
    <polygon fill="black" points="3101.89,4840.65 3101.89,3833.89 3236.69,3833.89 3236.69,4840.65 "/>
   </g>
  </g>
 </g>
</svg>
