<?xml version="1.0" encoding="UTF-8"?>
<!DOCTYPE svg PUBLIC "-//W3C//DTD SVG 1.0//EN" "http://www.w3.org/TR/2001/REC-SVG-20010904/DTD/svg10.dtd">
<!-- Creator: CorelDRAW 2021.5 -->
<svg xmlns="http://www.w3.org/2000/svg" xml:space="preserve" width="154.918mm" height="119.826mm" version="1.0" shape-rendering="geometricPrecision" text-rendering="geometricPrecision" image-rendering="optimizeQuality" fill-rule="evenodd" clip-rule="evenodd"
viewBox="0 0 15491.8 11982.6"
 xmlns:xlink="http://www.w3.org/1999/xlink"
 xmlns:xodm="http://www.corel.com/coreldraw/odm/2003">
 <g id="Layer_x0020_1">
  <metadata id="CorelCorpID_0Corel-Layer"/>
  <g id="_1450415373792">
   <rect fill="white" x="-1.11" y="3.09" width="15491.82" height="11982.62"/>
   <g>
    <path fill="black" d="M1247.97 4612.2l9897.53 0 0 6189.52 -9897.53 0 0 -6189.52zm100 100l9697.53 0 0 5989.52 -9697.53 0 0 -5989.52z"/>
    <path fill="black" d="M4258.63 1167.44l9897.53 0 0 6189.52 -9897.53 0 0 -6189.52zm100 100l9697.53 0 0 5989.52 -9697.53 0 0 -5989.52z"/>
    <polygon fill="black" points="14076.38,1182.5 14151.52,1248.49 11086.65,4738.44 11086.65,4738.43 11011.52,4672.45 "/>
    <polygon fill="black" points="4278.85,1182.5 4353.99,1248.49 1289.12,4738.44 1289.12,4738.43 1213.99,4672.45 "/>
    <polygon fill="black" points="14076.38,7272.02 14151.52,7338.01 11124.62,10784.72 11124.62,10784.71 11049.49,10718.73 "/>
    <polygon fill="black" points="4278.85,7272.02 4353.99,7338.01 1327.09,10784.72 1327.09,10784.71 1251.96,10718.73 "/>
    <g>
     <circle fill="black" cx="12791.24" cy="5081.29" r="761.27"/>
     <circle fill="#E6E6E6" transform="matrix(-0.758739 0.758739 -0.898383 -0.898383 12730.1 5009.04)" r="431.36"/>
    </g>
    <g>
     <circle fill="black" cx="9477.52" cy="5910.69" r="761.27"/>
     <circle fill="#E6E6E6" transform="matrix(-0.758739 0.758739 -0.898383 -0.898383 9416.39 5838.44)" r="431.36"/>
    </g>
    <g>
     <circle fill="black" cx="6009.43" cy="8931.97" r="761.27"/>
     <circle fill="#E6E6E6" transform="matrix(-0.758739 0.758739 -0.898383 -0.898383 5948.3 8859.72)" r="431.36"/>
    </g>
    <g>
     <circle fill="black" cx="3134.4" cy="5323.37" r="761.27"/>
     <circle fill="#E6E6E6" transform="matrix(-0.758739 0.758739 -0.898383 -0.898383 3073.27 5251.12)" r="431.36"/>
    </g>
    <g>
     <circle fill="black" cx="14056.16" cy="7256.96" r="779.17"/>
     <circle fill="white" cx="14056.16" cy="7256.96" r="628.45"/>
    </g>
    <g>
     <circle fill="black" cx="11045.5" cy="10701.72" r="779.17"/>
     <circle fill="white" cx="11045.5" cy="10701.72" r="628.45"/>
    </g>
    <g>
     <circle fill="black" cx="14089.62" cy="1287.09" r="779.17"/>
     <circle fill="white" cx="14089.62" cy="1287.09" r="628.45"/>
    </g>
    <g>
     <circle fill="black" cx="4355.65" cy="1334.05" r="779.17"/>
     <circle fill="white" cx="4355.65" cy="1334.05" r="628.45"/>
    </g>
    <g>
     <circle fill="black" cx="4302.46" cy="7242.88" r="779.17"/>
     <circle fill="white" cx="4302.46" cy="7242.88" r="628.45"/>
    </g>
    <g>
     <circle fill="black" cx="11130.02" cy="4721.6" r="779.17"/>
     <circle fill="white" cx="11130.02" cy="4721.6" r="628.45"/>
    </g>
    <g>
     <circle fill="black" cx="7587.47" cy="5923.72" r="779.17"/>
     <circle fill="white" cx="7587.47" cy="5923.72" r="628.45"/>
    </g>
    <g>
     <circle fill="black" cx="1399.98" cy="10701.72" r="779.17"/>
     <circle fill="white" cx="1399.98" cy="10701.72" r="628.45"/>
    </g>
    <g>
     <circle fill="black" cx="1399.98" cy="4774.37" r="779.17"/>
     <circle fill="white" cx="1399.98" cy="4774.37" r="628.45"/>
    </g>
   </g>
  </g>
 </g>
</svg>
