<?xml version="1.0" encoding="UTF-8"?>
<!DOCTYPE svg PUBLIC "-//W3C//DTD SVG 1.0//EN" "http://www.w3.org/TR/2001/REC-SVG-20010904/DTD/svg10.dtd">
<!-- Creator: CorelDRAW 2021.5 -->
<svg xmlns="http://www.w3.org/2000/svg" xml:space="preserve" width="115.075mm" height="168.216mm" version="1.0" shape-rendering="geometricPrecision" text-rendering="geometricPrecision" image-rendering="optimizeQuality" fill-rule="evenodd" clip-rule="evenodd"
viewBox="0 0 11507.5 16821.6"
 xmlns:xlink="http://www.w3.org/1999/xlink"
 xmlns:xodm="http://www.corel.com/coreldraw/odm/2003">
 <g id="Layer_x0020_1">
  <metadata id="CorelCorpID_0Corel-Layer"/>
  <g id="_1998977514576">
   <path fill="white" d="M155.7 5.07l11188.93 0c87.72,0 159.26,70.8 159.26,157.62l0 16506.36c0,86.82 -71.54,157.62 -159.26,157.62l-11188.93 0c-87.72,0 -159.26,-70.8 -159.26,-157.62l0 -16506.36c0,-86.82 71.54,-157.62 159.26,-157.62z"/>
   <path fill="black" d="M453.61 521.38l10593.1 0 0 15788.98 -10593.1 0 0 -15788.98zm75.39 75.39l0 15638.2 10442.32 0 0 -15638.2 -10442.32 0z"/>
   <path fill="black" d="M2187.34 13793.06l-283.25 -136.63c-160.58,288.05 -519.94,404.44 -820.86,259.3 -312.32,-150.64 -443.38,-525.95 -292.74,-838.27 150.64,-312.32 525.94,-443.38 838.26,-292.74 300.93,145.14 433.54,498.83 308.09,803.81l283.25 136.62 55.04 -114.12 660.87 501.28 -803.7 -205.14 55.04 -114.11zm-333.74 -202.83c-132.56,274.82 -462.8,390.15 -737.61,257.6 -274.82,-132.56 -390.15,-462.8 -257.6,-737.62 132.55,-274.81 462.79,-390.14 737.61,-257.59 274.82,132.55 390.15,462.79 257.6,737.61z"/>
   <path fill="black" d="M1529.42 15408.77l268.79 -163.24c-154.22,-291.5 -56.24,-656.31 229.32,-829.73 296.37,-180 682.55,-85.65 862.54,210.73 179.99,296.38 85.65,682.55 -210.73,862.54 -285.56,173.43 -654.45,92.15 -841.99,-179.11l-268.8 163.24 65.77 108.3 -780.24 281.51 609.57 -562.54 65.77 108.3zm351.81 -169.56c-158.38,-260.79 -75.36,-600.59 185.43,-758.98 260.79,-158.38 600.59,-75.36 758.97,185.43 158.38,260.79 75.37,600.6 -185.42,758.98 -260.79,158.38 -600.6,75.36 -758.98,-185.43z"/>
   <path fill="black" d="M5777.5 12578.05l-235.84 208.03c203.14,259.78 170.95,636.14 -79.61,857.14 -260.04,229.38 -656.8,204.51 -886.17,-55.53 -229.38,-260.05 -204.52,-656.8 55.53,-886.18 250.55,-221 627.99,-205.96 860.38,28.03l235.84 -208.03 -83.81 -95.02 718.47 -414.52 -500.98 661.1 -83.81 -95.02zm-316.45 228.86c201.83,228.82 179.95,577.94 -48.87,779.77 -228.82,201.83 -577.93,179.96 -779.76,-48.86 -201.84,-228.82 -179.96,-577.94 48.86,-779.77 228.82,-201.83 577.93,-179.96 779.77,48.86z"/>
   <path fill="black" d="M8920.25 14550.31l235.84 208.03c-203.14,259.78 -170.95,636.14 79.6,857.14 260.05,229.38 656.8,204.51 886.18,-55.53 229.38,-260.05 204.51,-656.8 -55.53,-886.18 -250.56,-221 -627.99,-205.96 -860.38,28.03l-235.84 -208.03 83.81 -95.02 -718.47 -414.52 500.98 661.1 83.81 -95.02zm316.45 228.86c-201.83,228.82 -179.96,577.94 48.86,779.77 228.82,201.84 577.94,179.96 779.77,-48.86 201.84,-228.82 179.96,-577.94 -48.86,-779.77 -228.82,-201.83 -577.94,-179.96 -779.77,48.86z"/>
   <path fill="black" d="M10413.39 14475.42l-173.96 -261.98c263.46,-198.36 329.77,-570.22 144.95,-848.54 -191.82,-288.87 -581.49,-367.54 -870.35,-175.72 -288.87,191.82 -367.54,581.48 -175.72,870.35 184.82,278.32 553.28,361.48 838.31,195.61l173.97 261.98 -105.55 70.09 586.7 586.35 -312.8 -768.23 -105.55 70.09zm-246.43 -302.97c254.18,-168.79 323.4,-511.67 154.62,-765.85 -168.79,-254.18 -511.67,-323.4 -765.85,-154.62 -254.18,168.79 -323.4,511.67 -154.62,765.85 168.79,254.17 511.67,323.4 765.85,154.62z"/>
   <path fill="black" d="M8770.74 15719.63l-243.74 -198.72c192.91,-267.47 146.13,-642.29 -112.81,-853.41 -268.75,-219.11 -664.24,-178.86 -883.35,89.89 -219.11,268.76 -178.87,664.24 89.88,883.35 258.95,211.12 635.51,181.44 858.64,-61.4l243.74 198.72 -80.06 98.2 734.02 386.33 -526.26 -641.16 -80.06 98.2zm-325.09 -216.41c192.8,-236.48 157.38,-584.48 -79.1,-777.28 -236.48,-192.8 -584.48,-157.39 -777.28,79.09 -192.8,236.48 -157.39,584.48 79.09,777.28 236.48,192.8 584.49,157.39 777.29,-79.09z"/>
   <path fill="black" d="M5582.38 15799.8l290.57 -120.28c143.93,296.71 496.07,433.37 804.77,305.59 320.39,-132.62 472.6,-499.86 339.98,-820.25 -132.63,-320.38 -499.86,-472.6 -820.25,-339.98 -308.69,127.79 -461.23,473.35 -353.33,784.98l-290.57 120.28 -48.46 -117.07 -688.33 462.85 814.08 -159.06 -48.46 -117.06zm344.75 -183.5c116.69,281.91 439.83,415.85 721.75,299.15 281.92,-116.69 415.86,-439.83 299.16,-721.75 -116.7,-281.92 -439.84,-415.86 -721.76,-299.16 -281.91,116.7 -415.85,439.84 -299.15,721.76z"/>
   <path fill="black" d="M7547.29 13887.73l-314.47 3.1c-16.25,329.38 -286.77,593 -620.85,596.29 -346.74,3.42 -630.59,-274.9 -634.01,-621.63 -3.41,-346.74 274.91,-630.59 621.64,-634 334.08,-3.29 609.74,254.96 632.48,583.95l314.46 -3.09 -1.24 -126.7 814.6 156.38 -811.37 172.39 -1.24 -126.69zm-389.07 -33.86c3,305.1 -241.9,554.86 -547,557.87 -305.1,3 -554.87,-241.89 -557.87,-547 -3,-305.1 241.89,-554.86 546.99,-557.87 305.11,-3 554.87,241.89 557.88,547z"/>
   <path fill="black" d="M7380.37 13095.59l314.46 3.1c16.26,329.38 286.78,593.01 620.86,596.3 346.74,3.41 630.59,-274.91 634,-621.64 3.42,-346.74 -274.9,-630.59 -621.64,-634 -334.08,-3.29 -609.74,254.96 -632.47,583.95l-314.47 -3.09 1.25 -126.7 -814.6 156.38 811.36 172.4 1.25 -126.7zm389.07 -33.86c-3.01,305.1 241.89,554.87 546.99,557.87 305.1,3 554.87,-241.89 557.88,-546.99 3,-305.1 -241.9,-554.87 -547,-557.88 -305.1,-3 -554.87,241.9 -557.87,547z"/>
   <path fill="black" d="M2394.77 12678.6l313.82 20.32c-1.82,329.78 253.85,607.83 587.25,629.42 346.03,22.41 644.7,-239.93 667.11,-585.96 22.41,-346.03 -239.93,-644.7 -585.96,-667.11 -333.4,-21.59 -622.8,221.17 -663.53,548.42l-313.82 -20.32 8.19 -126.44 -821.95 111.51 800.7 216.59 8.19 -126.43zm390.34 -12.5c-19.72,304.48 211.12,567.29 515.6,587.01 304.48,19.72 567.29,-211.12 587.01,-515.6 19.72,-304.48 -211.13,-567.29 -515.61,-587.01 -304.47,-19.72 -567.29,211.13 -587,515.6z"/>
   <path fill="black" d="M3896.3 14696.33l313.83 20.32c-1.82,329.78 253.85,607.83 587.24,629.42 346.03,22.41 644.71,-239.93 667.12,-585.96 22.41,-346.03 -239.94,-644.7 -585.97,-667.11 -333.39,-21.59 -622.79,221.16 -663.52,548.42l-313.82 -20.32 8.18 -126.44 -821.94 111.51 800.7 216.59 8.18 -126.43zm390.34 -12.5c-19.72,304.48 211.13,567.29 515.61,587.01 304.47,19.72 567.29,-211.12 587,-515.6 19.72,-304.48 -211.12,-567.29 -515.6,-587.01 -304.48,-19.72 -567.29,211.12 -587.01,515.6z"/>
  </g>
 </g>
</svg>
