<?xml version="1.0" encoding="UTF-8"?>
<!DOCTYPE svg PUBLIC "-//W3C//DTD SVG 1.0//EN" "http://www.w3.org/TR/2001/REC-SVG-20010904/DTD/svg10.dtd">
<!-- Creator: CorelDRAW 2021.5 -->
<svg xmlns="http://www.w3.org/2000/svg" xml:space="preserve" width="174.034mm" height="67.274mm" version="1.0" shape-rendering="geometricPrecision" text-rendering="geometricPrecision" image-rendering="optimizeQuality" fill-rule="evenodd" clip-rule="evenodd"
viewBox="0 0 17403.4 6727.4"
 xmlns:xlink="http://www.w3.org/1999/xlink"
 xmlns:xodm="http://www.corel.com/coreldraw/odm/2003">
 <g id="Layer_x0020_1">
  <metadata id="CorelCorpID_0Corel-Layer"/>
  <g id="_2034957607248">
   <polygon fill="white" stroke="black" stroke-width="20" stroke-miterlimit="22.9256" points="-0.39,1.48 10027.61,1.48 10027.61,1346.95 -0.39,1346.95 "/>
   <polygon fill="white" stroke="black" stroke-width="20" stroke-miterlimit="22.9256" points="17403.05,1.48 10027.61,1.48 10027.61,1346.95 17403.05,1346.95 "/>
   <polygon fill="white" stroke="black" stroke-width="20" stroke-miterlimit="22.9256" points="-0.39,1346.95 10027.61,1346.95 10027.61,2692.42 -0.39,2692.42 "/>
   <polygon fill="white" stroke="black" stroke-width="20" stroke-miterlimit="22.9256" points="-0.39,2692.42 10027.61,2692.42 10027.61,4037.89 -0.39,4037.89 "/>
   <polygon fill="white" stroke="black" stroke-width="20" stroke-miterlimit="22.9256" points="-0.39,4037.89 10027.61,4037.89 10027.61,5383.36 -0.39,5383.36 "/>
   <polygon fill="white" stroke="black" stroke-width="20" stroke-miterlimit="22.9256" points="-0.39,5383.36 10027.61,5383.36 10027.61,6728.83 -0.39,6728.83 "/>
   <polygon fill="white" stroke="black" stroke-width="20" stroke-miterlimit="22.9256" points="17403.05,1346.95 10027.61,1346.95 10027.61,2692.42 17403.05,2692.42 "/>
   <polygon fill="white" stroke="black" stroke-width="20" stroke-miterlimit="22.9256" points="17403.05,2692.42 10027.61,2692.42 10027.61,4037.89 17403.05,4037.89 "/>
   <polygon fill="white" stroke="black" stroke-width="20" stroke-miterlimit="22.9256" points="17403.05,4037.89 10027.61,4037.89 10027.61,5383.36 17403.05,5383.36 "/>
   <polygon fill="white" stroke="black" stroke-width="20" stroke-miterlimit="22.9256" points="17403.05,5383.36 10027.61,5383.36 10027.61,6728.83 17403.05,6728.83 "/>
   <path fill="black" fill-rule="nonzero" d="M3804.82 331.11l5.53 244.34 -22.11 0c-10.51,-61.18 -36.12,-110.37 -77.03,-147.6 -41.09,-37.22 -85.31,-55.83 -132.85,-55.83 -36.86,0 -65.97,9.77 -87.34,29.48 -21.56,19.54 -32.25,42.2 -32.25,67.63 0,16.21 3.87,30.59 11.42,43.3 10.32,16.77 27.09,33.54 50.31,50.12 16.95,11.8 56.02,32.99 117.19,63.21 85.87,42.01 143.73,81.81 173.58,119.22 29.67,37.4 44.41,80.15 44.41,128.43 0,61.18 -23.96,113.69 -71.68,157.73 -47.73,44.04 -108.35,66.15 -181.87,66.15 -23.03,0 -44.96,-2.39 -65.42,-7 -20.63,-4.6 -46.43,-13.45 -77.39,-26.53 -17.32,-7.19 -31.51,-10.69 -42.75,-10.69 -9.4,0 -19.16,3.69 -29.66,10.87 -10.51,7.37 -18.98,18.43 -25.43,33.35l-18.8 0 0 -276.4 18.8 0c15.84,77.58 46.43,136.91 91.58,177.64 45.33,40.72 93.97,61.17 146.3,61.17 40.36,0 72.61,-11.05 96.56,-32.98 23.96,-21.93 35.93,-47.36 35.93,-76.66 0,-17.13 -4.6,-33.9 -13.82,-50.12 -9.21,-16.21 -23.03,-31.51 -41.83,-46.25 -18.79,-14.55 -51.96,-33.53 -99.5,-56.93 -66.7,-32.62 -114.61,-60.63 -143.73,-83.66 -28.93,-23.04 -51.22,-48.83 -66.89,-77.21 -15.66,-28.56 -23.4,-59.89 -23.4,-93.98 0,-58.41 21.38,-108.16 64.31,-149.25 42.75,-41.09 96.74,-61.55 161.97,-61.55 23.77,0 46.8,2.77 69.1,8.48 16.95,4.42 37.59,12.35 61.91,23.95 24.33,11.61 41.28,17.33 51.05,17.33 9.39,0 16.76,-2.77 22.11,-8.48 5.34,-5.71 10.5,-19.53 15.11,-41.28l16.58 0zm328.55 697.64l0 189.05c0,26.17 2.03,44.04 6.27,53.44 4.05,9.4 10.5,16.4 19.16,20.64 8.66,4.42 25.61,6.63 50.86,6.63l0 18.8 -289.67 0 0 -18.8c22.85,-0.73 39.8,-7 50.86,-19.16 7.37,-8.29 11.05,-30.04 11.05,-64.86l0 -534.01c0,-36.11 -4.23,-58.96 -12.71,-69.1 -8.48,-9.95 -24.88,-15.66 -49.2,-17.13l0 -18.8 213.38 0 0 66.34c17.69,-25.8 35.57,-44.6 53.99,-56.02 26.17,-16.4 54.73,-24.69 85.69,-24.69 37.03,0 70.75,11.61 101.16,35.01 30.4,23.4 53.44,55.65 69.28,96.74 15.85,41.09 23.77,85.31 23.77,132.85 0,51.05 -8.1,97.67 -24.5,139.86 -16.4,42.2 -40.17,74.26 -71.32,96.37 -30.95,22.12 -65.59,33.17 -103.74,33.17 -27.64,0 -53.62,-6.08 -77.76,-18.42 -17.87,-9.22 -36.85,-25.25 -56.57,-47.91zm0 -54.55c30.96,43.68 64.13,65.6 99.51,65.6 19.53,0 35.56,-10.13 48.09,-30.59 18.79,-30.22 28.19,-87.52 28.19,-172.1 0,-86.79 -10.32,-146.12 -30.77,-178 -13.82,-21.19 -32.06,-31.7 -55.28,-31.7 -36.3,0 -66.34,26.17 -89.74,78.5l0 268.29zm847.08 -164.36l-277.51 0c3.32,66.89 21.19,119.77 53.62,158.65 24.88,29.85 54.73,44.78 89.74,44.78 21.74,0 41.28,-6.08 58.97,-18.06 17.69,-11.98 36.67,-33.72 56.75,-64.86l18.43 12.16c-27.27,55.46 -57.68,94.9 -90.66,117.93 -33.17,23.03 -71.5,34.64 -115.17,34.64 -74.81,0 -131.56,-28.74 -170.08,-86.23 -30.95,-46.25 -46.43,-103.75 -46.43,-172.48 0,-84.02 22.85,-150.91 68.36,-200.66 45.52,-49.76 98.95,-74.63 160.13,-74.63 51.04,0 95.45,20.82 133.04,62.65 37.59,41.83 57.86,103.93 60.81,186.11zm-132.67 -35.38c0,-57.86 -3.14,-97.66 -9.4,-119.22 -6.45,-21.56 -16.22,-37.96 -29.48,-49.02 -7.56,-6.45 -17.69,-9.76 -30.41,-9.76 -18.61,0 -33.9,9.21 -45.88,27.45 -21.19,32.07 -31.88,75.92 -31.88,131.75l0 18.8 147.05 0zm606.6 175.24l16.77 12.9c-23.77,44.77 -53.44,77.94 -89,99.68 -35.57,21.93 -73.34,32.8 -113.33,32.8 -67.44,0 -121.24,-25.24 -161.6,-75.92 -40.35,-50.67 -60.62,-111.66 -60.62,-182.79 0,-68.54 18.42,-128.98 55.09,-180.95 44.41,-62.83 105.4,-94.34 183.16,-94.34 52.34,0 93.8,13.08 124.57,39.43 30.77,26.17 46.25,55.47 46.25,87.71 0,20.46 -6.27,36.86 -18.61,49.2 -12.53,12.16 -28.75,18.24 -48.83,18.24 -21.38,0 -38.88,-7 -52.7,-21 -14.01,-14.01 -22.48,-39.07 -25.8,-75 -2.03,-22.66 -7.37,-38.51 -15.66,-47.54 -8.29,-9.03 -18.06,-13.45 -29.12,-13.45 -17.32,0 -32.06,9.21 -44.41,27.45 -18.61,27.64 -28,70.03 -28,126.96 0,47.36 7.55,92.69 22.66,135.99 15.3,43.31 35.93,75.37 62.28,96.56 19.9,15.48 43.31,23.22 70.39,23.22 17.69,0 34.46,-4.06 50.31,-12.35 15.84,-8.29 34.64,-23.77 56.2,-46.8zm200.48 -618.59c23.4,0 43.12,8.11 59.33,24.51 16.22,16.4 24.33,36.12 24.33,59.15 0,23.22 -8.11,42.75 -24.51,58.97 -16.4,16.21 -36.12,24.32 -59.15,24.32 -23.22,0 -42.75,-8.11 -58.97,-24.32 -16.21,-16.22 -24.32,-35.75 -24.32,-58.97 0,-23.03 8.11,-42.75 24.32,-59.15 16.22,-16.4 35.75,-24.51 58.97,-24.51zm75.92 244.34l0 400.23c0,35.93 4.24,58.96 12.53,69.1 8.47,9.95 24.87,15.66 49.38,17.13l0 18.8 -275.29 0 0 -18.8c22.85,-0.73 39.8,-7.18 50.85,-19.71 7.37,-8.29 11.06,-30.59 11.06,-66.52l0 -295.2c0,-36.11 -4.24,-58.96 -12.71,-69.1 -8.48,-9.95 -24.88,-15.66 -49.2,-17.13l0 -18.8 213.38 0zm538.24 234.39l-277.51 0c3.32,66.89 21.19,119.77 53.62,158.65 24.88,29.85 54.73,44.78 89.74,44.78 21.74,0 41.28,-6.08 58.97,-18.06 17.69,-11.98 36.67,-33.72 56.75,-64.86l18.43 12.16c-27.27,55.46 -57.68,94.9 -90.66,117.93 -33.17,23.03 -71.5,34.64 -115.17,34.64 -74.81,0 -131.56,-28.74 -170.08,-86.23 -30.95,-46.25 -46.43,-103.75 -46.43,-172.48 0,-84.02 22.85,-150.91 68.36,-200.66 45.52,-49.76 98.95,-74.63 160.13,-74.63 51.04,0 95.45,20.82 133.04,62.65 37.59,41.83 57.86,103.93 60.81,186.11zm-132.67 -35.38c0,-57.86 -3.14,-97.66 -9.4,-119.22 -6.45,-21.56 -16.22,-37.96 -29.48,-49.02 -7.56,-6.45 -17.69,-9.76 -30.41,-9.76 -18.61,0 -33.9,9.21 -45.88,27.45 -21.19,32.07 -31.88,75.92 -31.88,131.75l0 18.8 147.05 0zm513.91 -212.28l7.74 172.48 -18.79 0c-21.75,-51.04 -44.23,-85.87 -67.63,-104.67 -23.22,-18.61 -46.43,-28 -69.65,-28 -14.56,0 -27.09,4.97 -37.41,14.74 -10.32,9.95 -15.48,21.37 -15.48,34.27 0,9.58 3.51,18.98 10.69,28.01 11.43,14.74 43.49,39.8 96,75.55 52.7,35.75 87.16,66.15 103.93,91.03 16.58,24.87 24.88,52.88 24.88,83.65 0,28.01 -7.01,55.47 -21.01,82.37 -13.82,26.9 -33.54,47.54 -58.96,61.91 -25.43,14.38 -53.44,21.56 -84.21,21.56 -23.96,0 -56.02,-7.55 -96.01,-22.85 -10.87,-3.87 -18.06,-5.89 -22.11,-5.89 -11.79,0 -21.56,9.21 -29.48,27.64l-18.8 0 -8.84 -181.32 18.79 0c16.03,47.17 38.15,82.55 66.34,106.14 28.01,23.58 54.54,35.38 79.6,35.38 17.32,0 31.33,-5.35 42.2,-15.85 10.87,-10.69 16.4,-23.4 16.4,-38.51 0,-17.32 -5.34,-32.07 -16.03,-44.78 -10.87,-12.53 -34.83,-31.51 -72.05,-56.94 -54.91,-38.14 -90.29,-67.07 -106.51,-87.16 -23.58,-29.48 -35.38,-61.91 -35.38,-97.47 0,-38.88 13.27,-73.89 39.99,-105.22 26.72,-31.51 65.41,-47.17 115.9,-47.17 27.28,0 53.63,6.82 79.05,20.45 9.59,5.53 17.51,8.29 23.59,8.29 6.45,0 11.79,-1.47 15.66,-4.23 3.87,-2.77 10.14,-10.51 18.8,-23.41l18.79 0z"/>
   <path fill="black" fill-rule="nonzero" d="M11677.45 1100.56l-650.64 0 252.77 -647.92 138.16 0 259.71 647.92zm-185.21 -109.5l-145.39 -384.89 -141.32 384.89 286.71 0zm453.07 -214.46l219.44 0 47.81 -168.32c6.49,-23.07 9.65,-40.72 9.65,-52.78 0,-11.77 -3.92,-20.82 -11.91,-27.15 -7.84,-6.18 -27,-10.26 -57.46,-12.37l4.97 -15.38 297.12 0 -4.83 15.38c-29.11,0 -51.28,6.34 -66.21,18.85 -15.08,12.52 -27.9,37.26 -38.46,74.21l-110.1 384.74c-7.39,25.19 -11.01,43.28 -11.01,54.14 0,11.01 3.93,19.16 11.92,24.89 10.25,7.69 28.96,11.76 56.1,12.37l-4.52 15.38 -291.23 0 6.63 -15.38c28.21,0 49.17,-5.58 62.44,-16.74 13.42,-11.17 25.79,-36.2 36.95,-75.26l51.13 -178.57 -218.39 0 -51.12 179.17c-7.4,24.58 -11.17,42.68 -11.17,54.6 0,10.55 4.53,19.3 13.58,25.94 8.9,6.63 26.69,10.25 53.24,10.86l-4.38 15.38 -287.46 0 4.98 -15.38c28.2,0 48.86,-5.58 61.98,-16.74 13.13,-11.17 25.34,-36.2 36.5,-75.26l109.95 -384.9c6.49,-22.17 9.65,-39.66 9.65,-52.33 0,-12.22 -3.77,-21.27 -11.61,-27.6 -7.84,-6.18 -26.54,-10.26 -55.95,-12.37l4.82 -15.38 291.99 0 -6.64 15.38c-27.14,0 -47.5,5.88 -61.38,17.65 -13.88,11.76 -26.54,36.95 -38.01,75.26l-49.01 167.71zm615.04 -287.77c25.64,0 50.68,6.49 75.11,19.61 24.44,13.12 43.59,31.97 57.31,56.71 13.73,24.58 20.52,50.07 20.52,76.62 0,42.07 -14.94,78.12 -44.8,108.13 -30.01,29.87 -66.06,44.8 -108.14,44.8 -42.07,0 -78.12,-14.93 -108.13,-44.8 -29.87,-30.01 -44.8,-66.06 -44.8,-108.13 0,-26.55 6.79,-52.04 20.51,-76.62 13.73,-24.74 32.88,-43.59 57.32,-56.71 24.43,-13.12 49.46,-19.61 75.1,-19.61zm0 57.01c-26.69,0 -49.46,9.35 -68.02,27.91 -18.55,18.7 -27.9,41.17 -27.9,67.56 0,26.4 9.35,48.87 28.06,67.57 18.85,18.55 41.47,27.9 67.86,27.9 26.55,0 49.02,-9.35 67.87,-27.9 18.7,-18.7 28.06,-41.17 28.06,-67.57 0,-26.39 -9.36,-48.86 -28.06,-67.56 -18.85,-18.56 -41.32,-27.91 -67.87,-27.91zm378.57 713.08l0 -19c33.93,-14.78 58.51,-33.94 73.75,-57.46 15.38,-23.53 23.07,-47.51 23.07,-72.1 0,-4.97 -1.05,-8.74 -3.01,-11.46 -2.12,-2.41 -4.08,-3.47 -6.19,-3.47 -1.81,0 -4.37,1.06 -7.99,3.02 -8.45,4.98 -19,7.54 -31.67,7.54 -17.35,0 -32.28,-6.79 -45.1,-20.36 -12.82,-13.42 -19.15,-29.41 -19.15,-47.51 0,-19.46 7.39,-36.5 22.02,-51.28 14.78,-14.63 32.57,-22.02 53.54,-22.02 25.34,0 46.9,9.81 64.85,29.41 17.95,19.61 27,46.45 27,80.54 0,42.08 -12.67,79.48 -38.16,112.21 -25.34,32.58 -63.04,56.56 -112.96,71.94zm605.54 -758.32l0 395.3 95.77 -94.87c19.76,-19 32.12,-32.88 36.95,-41.62 4.83,-8.6 7.24,-17.05 7.24,-25.19 0,-8 -3.17,-14.78 -9.65,-20.21 -6.49,-5.28 -19.16,-9.2 -38.01,-11.61l0 -15.39 185.81 0 0 15.39c-17.8,0.9 -33.18,5.12 -46.45,12.81 -13.27,7.55 -39.22,30.47 -77.83,68.63l-45.24 44.94 97.28 142.07c39.21,57.92 62.44,90.35 69.83,97.43 10.1,10.11 22.77,15.69 38,16.9l0 15.38 -213.41 0 0 -15.38c9.35,0 16.29,-1.81 20.52,-5.28 4.22,-3.62 6.48,-7.39 6.48,-11.62 0,-6.78 -6.18,-19.45 -18.55,-37.7l-82.35 -120.35 -26.39 26.09 0 74.65c0,31.68 3.01,51.43 8.9,59.28 5.88,7.84 18.1,12.81 36.34,14.93l0 15.38 -213.56 0 0 -15.38c17.35,-1.81 29.56,-7.39 36.95,-16.9 4.98,-6.48 7.39,-25.63 7.39,-57.31l0 -420.78c0,-31.53 -2.86,-51.28 -8.44,-58.98 -5.73,-7.84 -17.65,-12.82 -35.9,-15.23l0 -15.38 168.32 0zm433.46 15.38l0 -15.38 318.53 0 0 15.38 -19.46 0c-17.49,0 -31.67,3.17 -42.22,9.35 -7.4,4.23 -13.28,11.31 -17.65,21.42 -3.17,7.09 -4.83,25.79 -4.83,56.1l0 293.95c0,57.46 -5.73,99.39 -17.19,125.48 -11.46,26.1 -31.97,47.97 -61.23,65.46 -29.26,17.65 -64.55,26.39 -105.73,26.39 -50.37,0 -91.09,-13.27 -122.16,-39.81 -31.07,-26.55 -46.61,-55.81 -46.61,-88.08 0,-20.51 6.34,-37.25 19.01,-50.07 12.82,-12.82 28.2,-19.31 46.6,-19.31 17.95,0 33.18,5.73 45.4,17.19 12.21,11.47 18.4,25.64 18.4,42.39 0,8.29 -1.06,15.38 -3.02,21.56 -1.21,3.02 -5.88,10.41 -13.87,22.32 -8,11.92 -12.07,20.36 -12.07,25.34 0,7.69 3.77,14.33 11.46,19.91 11.16,8.29 25.64,12.37 43.44,12.37 12.67,0 23.07,-3.32 31.22,-9.81 8.29,-6.48 14.02,-16.59 17.34,-30.16 3.47,-13.72 5.13,-51.88 5.13,-114.47l0 -320.65c0,-30.91 -1.66,-50.22 -5.13,-57.91 -3.32,-7.69 -10.1,-14.48 -19.91,-20.21 -9.95,-5.88 -23.37,-8.75 -40.11,-8.75l-25.34 0zm752.14 171.03l0 55.05c22.62,-24.88 43.58,-42.08 62.89,-52.03 19.3,-9.81 40.42,-14.78 63.34,-14.78 26.55,0 48.72,6.18 66.82,18.55 17.95,12.37 31.67,31.22 41.47,56.56 23.53,-26.55 46.3,-45.7 67.87,-57.47 21.72,-11.76 44.34,-17.64 68.02,-17.64 28.51,0 51.43,6.48 68.32,19.6 17.05,13.13 28.81,29.87 35.45,50.08 6.63,20.21 9.95,52.33 9.95,96.67l0 169.37c0,31.83 2.87,51.58 8.6,59.12 5.58,7.7 17.64,12.67 35.74,15.09l0 15.38 -213.56 0 0 -15.38c16.89,-1.51 29.26,-8 37.25,-19.46 5.28,-7.99 8,-26.24 8,-54.75l0 -177.81c0,-36.95 -1.51,-60.33 -4.38,-70.44 -3.01,-9.95 -7.69,-17.34 -14.02,-22.32 -6.34,-4.82 -13.73,-7.24 -22.33,-7.24 -12.66,0 -25.48,4.68 -38.45,13.88 -12.97,9.35 -26.1,23.22 -39.37,41.78l0 222.15c0,29.71 2.41,48.42 7.39,56.11 6.79,10.86 19.76,16.89 38.76,18.1l0 15.38 -213.56 0 0 -15.38c11.31,-0.61 20.36,-3.47 27,-8.6 6.48,-5.13 11.01,-11.31 13.12,-18.55 2.26,-7.24 3.32,-22.93 3.32,-47.06l0 -178.12c0,-37.55 -1.51,-61.08 -4.38,-70.43 -3.01,-9.5 -7.84,-16.89 -14.78,-22.17 -6.93,-5.28 -14.32,-7.99 -22.32,-7.99 -11.76,0 -22.47,3.16 -32.12,9.35 -13.88,9.2 -28.51,24.88 -44.04,47.21l0 222.15c0,29.11 2.86,48.42 8.59,57.62 5.59,9.35 17.65,14.78 35.75,16.59l0 15.38 -212.66 0 0 -15.38c17.2,-1.81 29.56,-7.39 36.8,-16.74 4.98,-6.49 7.54,-25.64 7.54,-57.47l0 -234.37c0,-31.52 -2.86,-51.28 -8.59,-58.97 -5.73,-7.84 -17.65,-12.82 -35.75,-15.23l0 -15.39 168.32 0zm777.48 -11.76c35.74,0 69.07,9.2 99.99,27.75 30.77,18.55 54.3,44.94 70.28,79.03 15.99,34.08 23.98,71.34 23.98,111.91 0,58.51 -14.78,107.53 -44.49,146.9 -35.89,47.65 -85.36,71.48 -148.41,71.48 -61.98,0 -109.79,-21.71 -143.27,-65.3 -33.49,-43.44 -50.23,-93.96 -50.23,-151.27 0,-59.12 17.04,-110.55 51.28,-154.59 34.24,-43.89 81.14,-65.91 140.87,-65.91zm1.96 30.76c-14.93,0 -27.75,5.74 -38.46,17.05 -10.71,11.31 -17.8,33.63 -21.12,66.96 -3.47,33.48 -5.12,79.79 -5.12,139.21 0,31.52 2.11,60.93 6.18,88.38 3.17,20.81 10.1,36.8 20.66,47.66 10.56,10.86 22.62,16.29 36.05,16.29 13.27,0 24.28,-3.62 33.03,-11.01 11.46,-9.96 19,-23.98 22.92,-41.93 5.88,-27.9 8.75,-84.46 8.75,-169.52 0,-49.92 -2.72,-84.31 -8.3,-103.01 -5.58,-18.7 -13.87,-32.28 -24.73,-40.88 -7.54,-6.18 -17.5,-9.2 -29.86,-9.2zm417.62 -205.41l0 513.99c0,29.41 3.47,48.27 10.25,56.56 6.94,8.14 20.36,12.82 40.42,14.03l0 15.38 -225.32 0 0 -15.38c18.7,-0.61 32.58,-5.89 41.62,-16.14 6.04,-6.79 9.05,-25.04 9.05,-54.45l0 -428.02c0,-29.41 -3.46,-48.12 -10.4,-56.41 -6.94,-8.3 -20.36,-12.97 -40.27,-14.18l0 -15.38 174.65 0zm-3078.85 595.88l0.53 143.43c0,13.95 1.51,22.78 4.45,26.32 4.67,5.51 13.27,8.07 25.87,7.62l0 7.69 -121.72 0 0 -7.69c9.35,-0.15 16.07,-1.21 19.99,-3.24 3.92,-2.04 6.63,-4.83 8.14,-8.37 1.43,-3.55 2.19,-11.01 2.19,-22.33l-0.3 -143.43 -29.11 0 0 -21.71 29.03 0 0 -15.01 -0.07 -10.48c0,-21.27 7.76,-38.99 23.22,-53.24 15.54,-14.18 36.5,-21.27 62.89,-21.27 18.1,0 31.45,3.4 40.2,10.11 8.74,6.78 13.12,14.25 13.12,22.47 0,6.64 -2.72,12.29 -8.15,17.19 -5.5,4.83 -12.66,7.24 -21.71,7.24 -7.62,0 -13.73,-1.96 -18.18,-5.96 -4.52,-3.92 -6.78,-8.29 -6.78,-13.12 0,-1.35 0.45,-4.07 1.35,-8.14 0.61,-2.49 0.91,-4.83 0.91,-7.01 0,-3.1 -0.83,-5.36 -2.64,-6.79 -2.34,-2.19 -5.2,-3.32 -8.6,-3.32 -4.22,0 -7.84,1.81 -10.71,5.36 -2.86,3.54 -4.29,9.2 -4.29,17.04l0.15 38.83 0.15 26.1 30.92 0 0 21.71 -30.85 0zm3367.37 -539.32l-233.47 0 0 -26.7 233.47 0 0 26.7zm143.88 -214.92l0 245.23c0,18.55 0.83,30.39 2.42,35.44 1.65,5.13 5.05,9.35 10.25,12.6 5.13,3.24 13.42,4.9 24.81,4.9l6.86 0 0 7.69 -157.91 0 0 -7.69 8 0c12.82,0 21.94,-1.51 27.37,-4.45 5.51,-2.94 9.13,-7.01 11.09,-12.22 1.88,-5.2 2.86,-17.27 2.86,-36.27l0 -155.65c0,-13.95 -0.68,-22.69 -1.96,-26.24 -1.36,-3.47 -3.84,-6.41 -7.46,-8.82 -3.62,-2.49 -7.77,-3.7 -12.52,-3.7 -7.54,0 -16.67,2.34 -27.45,7.09l-4 -7.69 110.33 -50.22 7.31 0z"/>
   <path fill="black" fill-rule="nonzero" d="M3343.65 3286.43l0 186.41c0,30.92 1.66,50.23 4.98,57.92 3.47,7.69 9.95,14.48 19.76,20.21 9.8,5.88 23.07,8.75 39.66,8.75l19.76 0 0 15.38 -312.2 0 0 -15.38 19.76 0c17.35,0 31.37,-3.17 41.93,-9.35 7.69,-4.23 13.57,-11.32 17.64,-21.42 3.17,-7.09 4.83,-25.79 4.83,-56.11l0 -395.45c0,-30.91 -1.66,-50.22 -4.83,-57.91 -3.31,-7.69 -9.8,-14.48 -19.6,-20.21 -9.81,-5.88 -23.08,-8.75 -39.97,-8.75l-19.76 0 0 -15.38 312.2 0 0 15.38 -19.76 0c-17.19,0 -31.07,3.17 -41.62,9.35 -7.54,4.23 -13.58,11.31 -17.95,21.42 -3.17,7.09 -4.83,25.79 -4.83,56.1l0 170.13 212.66 0 0 -170.13c0,-30.91 -1.66,-50.22 -4.83,-57.91 -3.31,-7.69 -9.8,-14.48 -19.91,-20.21 -9.95,-5.88 -23.22,-8.75 -39.96,-8.75l-19.46 0 0 -15.38 312.2 0 0 15.38 -19.46 0c-17.49,0 -31.52,3.17 -41.77,9.35 -7.7,4.23 -13.73,11.31 -18.1,21.42 -3.17,7.09 -4.83,25.79 -4.83,56.1l0 395.45c0,30.92 1.66,50.23 4.83,57.92 3.32,7.69 9.8,14.48 19.91,20.21 9.95,5.88 23.22,8.75 39.96,8.75l19.46 0 0 15.38 -312.2 0 0 -15.38 19.46 0c17.49,0 31.52,-3.17 41.77,-9.35 7.7,-4.23 13.73,-11.32 18.1,-21.42 3.17,-7.09 4.83,-25.79 4.83,-56.11l0 -186.41 -212.66 0zm882.15 -324.87l4.53 199.99 -18.1 0c-8.6,-50.07 -29.56,-90.34 -63.04,-120.81 -33.64,-30.46 -69.83,-45.69 -108.75,-45.69 -30.16,0 -53.99,7.99 -71.48,24.13 -17.65,15.98 -26.4,34.54 -26.4,55.35 0,13.27 3.17,25.03 9.35,35.44 8.45,13.73 22.17,27.45 41.18,41.02 13.87,9.66 45.85,27 95.92,51.74 70.28,34.38 117.64,66.96 142.07,97.58 24.28,30.61 36.35,65.6 36.35,105.12 0,50.07 -19.61,93.05 -58.67,129.1 -39.06,36.05 -88.68,54.14 -148.86,54.14 -18.85,0 -36.8,-1.96 -53.54,-5.73 -16.89,-3.77 -38.01,-11.01 -63.35,-21.72 -14.17,-5.88 -25.79,-8.74 -34.99,-8.74 -7.69,0 -15.68,3.01 -24.28,8.9 -8.59,6.03 -15.53,15.08 -20.81,27.29l-15.38 0 0 -226.23 15.38 0c12.97,63.5 38.01,112.06 74.96,145.39 37.1,33.34 76.92,50.08 119.75,50.08 33.03,0 59.42,-9.05 79.03,-27 19.6,-17.95 29.41,-38.76 29.41,-62.74 0,-14.03 -3.77,-27.75 -11.31,-41.02 -7.54,-13.28 -18.86,-25.79 -34.24,-37.86 -15.38,-11.92 -42.53,-27.45 -81.44,-46.6 -54.6,-26.7 -93.81,-49.62 -117.64,-68.48 -23.68,-18.85 -41.93,-39.96 -54.75,-63.19 -12.82,-23.38 -19.15,-49.02 -19.15,-76.92 0,-47.81 17.49,-88.53 52.63,-122.16 34.99,-33.63 79.18,-50.38 132.57,-50.38 19.46,0 38.31,2.27 56.56,6.94 13.88,3.62 30.77,10.11 50.68,19.61 19.9,9.5 33.78,14.18 41.77,14.18 7.69,0 13.73,-2.27 18.1,-6.94 4.38,-4.68 8.6,-15.99 12.37,-33.79l13.57 0zm426.98 6.34c95.47,-3.47 173.14,24.28 232.86,83.4 59.73,59.27 89.59,133.18 89.59,222.16 0,75.86 -22.32,142.68 -66.81,200.44 -58.97,76.47 -142.23,114.77 -249.91,114.77 -107.99,0 -191.39,-36.49 -250.36,-109.49 -46.61,-57.77 -69.98,-126.09 -69.98,-205.27 0,-88.98 30.31,-163.03 90.94,-222.31 60.63,-59.42 135.14,-87.17 223.67,-83.7zm5.28 28.05c-55.05,0 -96.83,27.9 -125.64,83.86 -23.37,45.85 -34.99,111.75 -34.99,197.72 0,102.11 18.1,177.67 54.15,226.53 25.18,34.09 60.33,51.13 105.57,51.13 30.47,0 55.96,-7.39 76.32,-22.02 25.94,-18.85 46.3,-49.01 60.78,-90.34 14.48,-41.32 21.71,-95.32 21.71,-161.68 0,-79.18 -7.39,-138.45 -22.17,-177.66 -14.78,-39.37 -33.63,-67.12 -56.55,-83.26 -22.93,-16.13 -49.32,-24.28 -79.18,-24.28zm360.91 647.47l141.85 -193.2 26.92 0 0 193.2 27.6 0 0 45.7 -27.6 0 0 66.96 -60.63 0 0 -66.96 -108.14 0 0 -45.7zm20.66 0l87.48 0 0 -119.15 -87.48 119.15zm424.11 -611.72l-233.47 0 0 -26.7 233.47 0 0 26.7zm389.12 -69.23l-8.15 24.28c-42.08,30.01 -76.92,64.85 -104.52,104.67 -42.38,61.23 -76.92,135.74 -103.46,223.67 -26.69,87.77 -39.97,170.27 -39.97,247.34 0,49.17 11.77,102.26 35.29,158.97l-8.14 25.63c-79.03,-106.02 -118.54,-211.6 -118.54,-317.02 0,-60.63 13.27,-120.65 39.66,-180.08 31.22,-69.53 77.52,-131.21 138.76,-185.05 46.75,-41.18 103.16,-75.26 169.07,-102.41zm344.17 209.04l-86.87 293.64 -9.05 35.75c-0.91,4.37 -1.36,7.69 -1.36,9.8 0,3.47 1.21,6.49 3.77,9.2 2.41,2.56 4.98,3.92 7.54,3.92 6.03,0 14.48,-4.67 25.19,-14.03 4.37,-3.92 14.78,-17.34 31.37,-40.57l15.38 8c-20.96,38.16 -43.13,65.91 -66.81,83.4 -23.53,17.5 -49.02,26.24 -76.32,26.24 -16.74,0 -29.41,-4.22 -38.3,-12.82 -8.75,-8.59 -13.13,-19.45 -13.13,-32.57 0,-11.47 4.83,-32.73 14.48,-63.95l10.71 -35.9c-34.24,58.67 -67.11,100.15 -98.64,124.28 -18.24,14.03 -37.7,20.96 -58.36,20.96 -27.15,0 -46.76,-11.16 -58.97,-33.33 -12.07,-22.17 -18.1,-47.35 -18.1,-75.26 0,-41.47 12.67,-89.13 38.16,-142.82 25.48,-53.85 58.97,-96.98 100.44,-129.71 34.09,-26.99 66.06,-40.57 96.07,-40.57 16.59,0 29.87,4.83 39.97,14.33 10.11,9.65 17.5,27 22.17,52.33l16.29 -53.99 104.37 -6.33zm-141.77 84.3c0,-23.83 -3.77,-41.02 -11.16,-51.58 -5.43,-7.39 -12.67,-11.01 -21.87,-11.01 -9.35,0 -18.85,4.38 -28.66,13.28 -19.91,18.09 -41.47,55.05 -64.55,110.7 -23.07,55.65 -34.54,103.61 -34.54,144.18 0,15.54 2.57,26.85 7.85,33.63 5.12,6.94 10.85,10.41 17.04,10.41 13.42,0 26.84,-7.69 40.57,-22.92 19.45,-21.72 37.1,-48.27 52.79,-79.64 28.35,-55.2 42.53,-104.21 42.53,-147.05zm590.31 -77.97l-124.73 451.1c-8.45,30.92 -13.58,50.38 -15.23,58.52 -2.57,12.97 -3.93,23.98 -3.93,32.88 0,9.35 3.78,16.89 11.47,22.77 10.4,8.15 26.84,12.97 49.16,14.78l-3.62 10.86 -237.99 0 3.62 -10.86c17.19,-2.86 30.01,-7.08 38.31,-12.82 8.29,-5.73 15.68,-15.38 22.17,-28.95 6.33,-13.58 13.72,-36.5 21.87,-68.78l56.71 -200.59c-32.73,56.56 -63.05,95.32 -90.95,116.28 -21.57,15.84 -42.98,23.83 -64.4,23.83 -21.26,0 -38.31,-7.99 -51.13,-23.83 -17.19,-21.26 -25.79,-49.92 -25.79,-86.11 0,-38.01 8.6,-77.83 25.79,-119.45 17.2,-41.63 39.97,-78.43 68.17,-110.4 28.21,-31.98 56.71,-55.35 85.37,-70.44 14.48,-7.69 30.77,-11.46 49.01,-11.46 17.95,0 32.58,5.13 43.74,15.54 11.16,10.25 18.86,27.14 23.23,50.67l15.68 -53.54 103.47 0zm-174.35 15.38c-10.26,0 -20.66,4.83 -31.22,14.63 -18.7,17.35 -37.86,51.58 -57.16,102.86 -23.38,62.89 -34.99,112.51 -34.99,148.71 0,15.38 3.17,27.3 9.35,35.75 4.52,6.18 10.41,9.35 17.49,9.35 9.96,0 19.91,-4.68 30.02,-14.18 23.83,-22.02 47.2,-58.82 70.13,-110.4 22.92,-51.43 34.39,-93.21 34.39,-125.33 0,-20.36 -3.93,-35.6 -11.77,-46 -7.84,-10.26 -16.59,-15.39 -26.24,-15.39zm92.9 553.81l8.15 -24.28c33.78,-24.13 62.29,-50.67 85.66,-79.48 23.38,-28.81 47.36,-68.77 71.95,-119.9 24.73,-50.98 44.79,-105.73 60.32,-163.94 20.06,-75.71 30.02,-146.45 30.02,-212.36 0,-49.16 -11.77,-102.4 -35.3,-159.41l8.15 -25.19c79.03,106.03 118.54,211.45 118.54,316.57 0,60.93 -13.27,121.11 -39.66,180.53 -30.92,69.23 -77.22,130.76 -138.76,184.61 -46.75,41.17 -103.16,75.41 -169.07,102.85z"/>
   <path fill="black" fill-rule="nonzero" d="M3746.72 4379.42l4.53 199.99 -18.1 0c-8.6,-50.07 -29.56,-90.34 -63.04,-120.81 -33.64,-30.46 -69.83,-45.69 -108.75,-45.69 -30.16,0 -53.99,7.99 -71.48,24.13 -17.65,15.98 -26.4,34.54 -26.4,55.35 0,13.27 3.17,25.03 9.35,35.44 8.45,13.73 22.17,27.45 41.18,41.02 13.87,9.66 45.85,27 95.92,51.74 70.28,34.38 117.64,66.96 142.07,97.58 24.28,30.61 36.35,65.6 36.35,105.12 0,50.07 -19.61,93.05 -58.67,129.1 -39.06,36.05 -88.68,54.14 -148.86,54.14 -18.85,0 -36.8,-1.96 -53.54,-5.73 -16.89,-3.77 -38.01,-11.01 -63.35,-21.72 -14.17,-5.88 -25.79,-8.74 -34.99,-8.74 -7.69,0 -15.68,3.01 -24.28,8.9 -8.59,6.03 -15.53,15.08 -20.81,27.29l-15.38 0 0 -226.23 15.38 0c12.97,63.5 38.01,112.06 74.96,145.39 37.1,33.34 76.92,50.08 119.75,50.08 33.03,0 59.42,-9.05 79.03,-27 19.6,-17.95 29.41,-38.76 29.41,-62.74 0,-14.03 -3.77,-27.75 -11.31,-41.02 -7.54,-13.28 -18.86,-25.79 -34.24,-37.86 -15.38,-11.92 -42.53,-27.45 -81.44,-46.6 -54.6,-26.7 -93.81,-49.62 -117.64,-68.48 -23.68,-18.85 -41.93,-39.96 -54.75,-63.19 -12.82,-23.38 -19.15,-49.02 -19.15,-76.92 0,-47.81 17.49,-88.53 52.63,-122.16 34.99,-33.63 79.18,-50.38 132.57,-50.38 19.46,0 38.31,2.27 56.56,6.94 13.88,3.62 30.77,10.11 50.68,19.61 19.9,9.5 33.78,14.18 41.77,14.18 7.69,0 13.73,-2.27 18.1,-6.94 4.38,-4.68 8.6,-15.99 12.37,-33.79l13.57 0zm426.98 6.34c95.47,-3.47 173.14,24.28 232.86,83.4 59.73,59.27 89.59,133.18 89.59,222.16 0,75.86 -22.32,142.68 -66.81,200.44 -58.97,76.47 -142.23,114.77 -249.91,114.77 -107.99,0 -191.39,-36.49 -250.36,-109.49 -46.61,-57.77 -69.98,-126.09 -69.98,-205.27 0,-88.98 30.31,-163.03 90.94,-222.31 60.63,-59.42 135.14,-87.17 223.67,-83.7zm5.28 28.05c-55.05,0 -96.83,27.9 -125.64,83.86 -23.37,45.85 -34.99,111.75 -34.99,197.72 0,102.11 18.1,177.67 54.15,226.53 25.18,34.09 60.33,51.13 105.57,51.13 30.47,0 55.96,-7.39 76.32,-22.02 25.94,-18.85 46.3,-49.01 60.78,-90.34 14.48,-41.32 21.71,-95.32 21.71,-161.68 0,-79.18 -7.39,-138.45 -22.17,-177.66 -14.78,-39.37 -33.63,-67.12 -56.55,-83.26 -22.93,-16.13 -49.32,-24.28 -79.18,-24.28zm360.91 647.47l141.85 -193.2 26.92 0 0 193.2 27.6 0 0 45.7 -27.6 0 0 66.96 -60.63 0 0 -66.96 -108.14 0 0 -45.7zm20.66 0l87.48 0 0 -119.15 -87.48 119.15zm381.43 -520.78l-176.31 0 0 -4.9c54.29,-64.33 87.17,-107.61 98.64,-129.86 11.46,-22.24 17.19,-43.96 17.19,-65.15 0,-15.46 -4.83,-28.36 -14.4,-38.54 -9.58,-10.25 -21.27,-15.38 -35.15,-15.38 -22.69,0 -40.26,11.39 -52.78,34.09l-8.22 -2.87c7.99,-28.35 20.06,-49.32 36.27,-62.89 16.21,-13.58 34.91,-20.36 56.1,-20.36 15.16,0 29.04,3.54 41.56,10.63 12.51,7.01 22.32,16.74 29.33,29.03 7.09,12.29 10.63,23.83 10.63,34.62 0,19.53 -5.43,39.44 -16.29,59.65 -14.85,27.22 -47.35,65.22 -97.35,114.02l64.7 0c15.91,0 26.24,-0.68 31,-1.97 4.82,-1.35 8.74,-3.54 11.83,-6.71 3.1,-3.16 7.09,-9.72 12.15,-19.83l7.99 0 -16.89 86.42zm268.91 -90.94l-233.47 0 0 -26.7 233.47 0 0 26.7zm389.12 -69.23l-8.15 24.28c-42.08,30.01 -76.92,64.85 -104.52,104.67 -42.38,61.23 -76.92,135.74 -103.46,223.67 -26.69,87.77 -39.97,170.27 -39.97,247.34 0,49.17 11.77,102.26 35.29,158.97l-8.14 25.63c-79.03,-106.02 -118.54,-211.6 -118.54,-317.02 0,-60.63 13.27,-120.65 39.66,-180.08 31.22,-69.53 77.52,-131.21 138.76,-185.05 46.75,-41.18 103.16,-75.26 169.07,-102.41zm344.17 209.04l-86.87 293.64 -9.05 35.75c-0.91,4.37 -1.36,7.69 -1.36,9.8 0,3.47 1.21,6.49 3.77,9.2 2.41,2.56 4.98,3.92 7.54,3.92 6.03,0 14.48,-4.67 25.19,-14.03 4.37,-3.92 14.78,-17.34 31.37,-40.57l15.38 8c-20.96,38.16 -43.13,65.91 -66.81,83.4 -23.53,17.5 -49.02,26.24 -76.32,26.24 -16.74,0 -29.41,-4.22 -38.3,-12.82 -8.75,-8.59 -13.13,-19.45 -13.13,-32.57 0,-11.47 4.83,-32.73 14.48,-63.95l10.71 -35.9c-34.24,58.67 -67.11,100.15 -98.64,124.28 -18.24,14.03 -37.7,20.96 -58.36,20.96 -27.15,0 -46.76,-11.16 -58.97,-33.33 -12.07,-22.17 -18.1,-47.35 -18.1,-75.26 0,-41.47 12.67,-89.13 38.16,-142.82 25.48,-53.85 58.97,-96.98 100.44,-129.71 34.09,-26.99 66.06,-40.57 96.07,-40.57 16.59,0 29.87,4.83 39.97,14.33 10.11,9.65 17.5,27 22.17,52.33l16.29 -53.99 104.37 -6.33zm-141.77 84.3c0,-23.83 -3.77,-41.02 -11.16,-51.58 -5.43,-7.39 -12.67,-11.01 -21.87,-11.01 -9.35,0 -18.85,4.38 -28.66,13.28 -19.91,18.09 -41.47,55.05 -64.55,110.7 -23.07,55.65 -34.54,103.61 -34.54,144.18 0,15.54 2.57,26.85 7.85,33.63 5.12,6.94 10.85,10.41 17.04,10.41 13.42,0 26.84,-7.69 40.57,-22.92 19.45,-21.72 37.1,-48.27 52.79,-79.64 28.35,-55.2 42.53,-104.21 42.53,-147.05zm590.31 -77.97l-124.73 451.1c-8.45,30.92 -13.58,50.38 -15.23,58.52 -2.57,12.97 -3.93,23.98 -3.93,32.88 0,9.35 3.78,16.89 11.47,22.77 10.4,8.15 26.84,12.97 49.16,14.78l-3.62 10.86 -237.99 0 3.62 -10.86c17.19,-2.86 30.01,-7.08 38.31,-12.82 8.29,-5.73 15.68,-15.38 22.17,-28.95 6.33,-13.58 13.72,-36.5 21.87,-68.78l56.71 -200.59c-32.73,56.56 -63.05,95.32 -90.95,116.28 -21.57,15.84 -42.98,23.83 -64.4,23.83 -21.26,0 -38.31,-7.99 -51.13,-23.83 -17.19,-21.26 -25.79,-49.92 -25.79,-86.11 0,-38.01 8.6,-77.83 25.79,-119.45 17.2,-41.63 39.97,-78.43 68.17,-110.4 28.21,-31.98 56.71,-55.35 85.37,-70.44 14.48,-7.69 30.77,-11.46 49.01,-11.46 17.95,0 32.58,5.13 43.74,15.54 11.16,10.25 18.86,27.14 23.23,50.67l15.68 -53.54 103.47 0zm-174.35 15.38c-10.26,0 -20.66,4.83 -31.22,14.63 -18.7,17.35 -37.86,51.58 -57.16,102.86 -23.38,62.89 -34.99,112.51 -34.99,148.71 0,15.38 3.17,27.3 9.35,35.75 4.52,6.18 10.41,9.35 17.49,9.35 9.96,0 19.91,-4.68 30.02,-14.18 23.83,-22.02 47.2,-58.82 70.13,-110.4 22.92,-51.43 34.39,-93.21 34.39,-125.33 0,-20.36 -3.93,-35.6 -11.77,-46 -7.84,-10.26 -16.59,-15.39 -26.24,-15.39zm92.9 553.81l8.15 -24.28c33.78,-24.13 62.29,-50.67 85.66,-79.48 23.38,-28.81 47.36,-68.77 71.95,-119.9 24.73,-50.98 44.79,-105.73 60.32,-163.94 20.06,-75.71 30.02,-146.45 30.02,-212.36 0,-49.16 -11.77,-102.4 -35.3,-159.41l8.15 -25.19c79.03,106.03 118.54,211.45 118.54,316.57 0,60.93 -13.27,121.11 -39.66,180.53 -30.92,69.23 -77.22,130.76 -138.76,184.61 -46.75,41.17 -103.16,75.41 -169.07,102.85z"/>
   <path fill="black" fill-rule="nonzero" d="M4035.16 5983.7l0 186.41c0,30.92 1.66,50.23 4.98,57.92 3.47,7.69 9.95,14.48 19.76,20.21 9.8,5.88 23.07,8.75 39.66,8.75l19.76 0 0 15.38 -312.2 0 0 -15.38 19.76 0c17.35,0 31.37,-3.17 41.93,-9.35 7.69,-4.23 13.57,-11.32 17.64,-21.42 3.17,-7.09 4.83,-25.79 4.83,-56.11l0 -395.45c0,-30.91 -1.66,-50.22 -4.83,-57.91 -3.31,-7.69 -9.8,-14.48 -19.6,-20.21 -9.81,-5.88 -23.08,-8.75 -39.97,-8.75l-19.76 0 0 -15.38 312.2 0 0 15.38 -19.76 0c-17.19,0 -31.07,3.17 -41.62,9.35 -7.54,4.23 -13.58,11.31 -17.95,21.42 -3.17,7.09 -4.83,25.79 -4.83,56.1l0 170.13 212.66 0 0 -170.13c0,-30.91 -1.66,-50.22 -4.83,-57.91 -3.31,-7.69 -9.8,-14.48 -19.91,-20.21 -9.95,-5.88 -23.22,-8.75 -39.96,-8.75l-19.46 0 0 -15.38 312.2 0 0 15.38 -19.46 0c-17.49,0 -31.52,3.17 -41.77,9.35 -7.7,4.23 -13.73,11.31 -18.1,21.42 -3.17,7.09 -4.83,25.79 -4.83,56.1l0 395.45c0,30.92 1.66,50.23 4.83,57.92 3.32,7.69 9.8,14.48 19.91,20.21 9.95,5.88 23.22,8.75 39.96,8.75l19.46 0 0 15.38 -312.2 0 0 -15.38 19.46 0c17.49,0 31.52,-3.17 41.77,-9.35 7.7,-4.23 13.73,-11.32 18.1,-21.42 3.17,-7.09 4.83,-25.79 4.83,-56.11l0 -186.41 -212.66 0zm1032.07 -318.53c95.47,-3.47 173.14,24.28 232.86,83.4 59.73,59.27 89.59,133.18 89.59,222.16 0,75.86 -22.32,142.68 -66.81,200.44 -58.97,76.47 -142.23,114.77 -249.91,114.77 -107.99,0 -191.39,-36.49 -250.36,-109.49 -46.61,-57.77 -69.98,-126.09 -69.98,-205.27 0,-88.98 30.31,-163.03 90.94,-222.31 60.63,-59.42 135.14,-87.17 223.67,-83.7zm5.28 28.05c-55.05,0 -96.83,27.9 -125.64,83.86 -23.37,45.85 -34.99,111.75 -34.99,197.72 0,102.11 18.1,177.67 54.15,226.53 25.18,34.09 60.33,51.13 105.57,51.13 30.47,0 55.96,-7.39 76.32,-22.02 25.94,-18.85 46.3,-49.01 60.78,-90.34 14.48,-41.32 21.71,-95.32 21.71,-161.68 0,-79.18 -7.39,-138.45 -22.17,-177.66 -14.78,-39.37 -33.63,-67.12 -56.55,-83.26 -22.93,-16.13 -49.32,-24.28 -79.18,-24.28zm-393.34 760.13l-176.31 0 0 -4.9c54.29,-64.33 87.17,-107.61 98.64,-129.86 11.46,-22.24 17.19,-43.96 17.19,-65.15 0,-15.46 -4.83,-28.36 -14.4,-38.54 -9.58,-10.25 -21.27,-15.38 -35.15,-15.38 -22.69,0 -40.26,11.39 -52.78,34.09l-8.22 -2.87c7.99,-28.35 20.06,-49.32 36.27,-62.89 16.21,-13.58 34.91,-20.36 56.1,-20.36 15.16,0 29.04,3.54 41.56,10.63 12.51,7.01 22.32,16.74 29.33,29.03 7.09,12.29 10.63,23.83 10.63,34.62 0,19.53 -5.43,39.44 -16.29,59.65 -14.85,27.22 -47.35,65.22 -97.35,114.02l64.7 0c15.91,0 26.24,-0.68 31,-1.97 4.82,-1.35 8.74,-3.54 11.83,-6.71 3.1,-3.16 7.09,-9.72 12.15,-19.83l7.99 0 -16.89 86.42zm1135.68 -793.61l-8.15 24.28c-42.08,30.01 -76.92,64.85 -104.52,104.67 -42.38,61.23 -76.92,135.74 -103.46,223.67 -26.69,87.77 -39.97,170.27 -39.97,247.34 0,49.17 11.77,102.26 35.29,158.97l-8.14 25.63c-79.03,-106.02 -118.54,-211.6 -118.54,-317.02 0,-60.63 13.27,-120.65 39.66,-180.08 31.22,-69.53 77.52,-131.21 138.76,-185.05 46.75,-41.18 103.16,-75.26 169.07,-102.41zm201.34 -0.91l-151.72 500.58c-8.75,29.71 -13.28,48.11 -13.28,55.5 0,3.77 1.36,6.78 3.78,9.35 2.56,2.56 5.27,3.77 8.29,3.77 5.28,0 10.41,-1.96 15.08,-5.88 14.33,-11.01 30.17,-29.56 47.81,-55.66l17.2 7.55c-28.21,42.83 -55.81,73.29 -82.96,91.54 -18.7,12.37 -38.45,18.55 -59.42,18.55 -19.61,0 -35.14,-5.12 -46.6,-15.53 -11.62,-10.26 -17.35,-22.77 -17.35,-37.25 0,-11.01 3.62,-28.51 11.01,-52.64l123.53 -407.51c6.78,-22.33 10.1,-37.26 10.1,-44.65 0,-7.09 -3.32,-12.67 -9.95,-16.74 -8.9,-5.88 -22.48,-8.44 -40.57,-7.54l3.62 -17.19 154.13 -26.25 27.3 0zm-143.58 785.47l8.15 -24.28c33.78,-24.13 62.29,-50.67 85.66,-79.48 23.38,-28.81 47.36,-68.77 71.95,-119.9 24.73,-50.98 44.79,-105.73 60.32,-163.94 20.06,-75.71 30.02,-146.45 30.02,-212.36 0,-49.16 -11.77,-102.4 -35.3,-159.41l8.15 -25.19c79.03,106.03 118.54,211.45 118.54,316.57 0,60.93 -13.27,121.11 -39.66,180.53 -30.92,69.23 -77.22,130.76 -138.76,184.61 -46.75,41.17 -103.16,75.41 -169.07,102.85z"/>
   <path fill="black" fill-rule="nonzero" d="M3708.43 1940.5l0 186.42c0,30.91 1.66,50.22 4.98,57.91 3.47,7.69 9.95,14.48 19.75,20.21 9.81,5.88 23.08,8.75 39.67,8.75l19.76 0 0 15.38 -312.2 0 0 -15.38 19.76 0c17.34,0 31.37,-3.17 41.93,-9.35 7.69,-4.23 13.57,-11.32 17.64,-21.42 3.17,-7.09 4.83,-25.79 4.83,-56.1l0 -395.45c0,-30.92 -1.66,-50.22 -4.83,-57.91 -3.31,-7.7 -9.8,-14.48 -19.6,-20.21 -9.81,-5.89 -23.08,-8.75 -39.97,-8.75l-19.76 0 0 -15.39 312.2 0 0 15.39 -19.76 0c-17.19,0 -31.07,3.17 -41.63,9.35 -7.54,4.22 -13.57,11.31 -17.94,21.42 -3.17,7.08 -4.83,25.79 -4.83,56.1l0 170.12 212.65 0 0 -170.12c0,-30.92 -1.65,-50.22 -4.82,-57.91 -3.32,-7.7 -9.81,-14.48 -19.91,-20.21 -9.95,-5.89 -23.23,-8.75 -39.97,-8.75l-19.45 0 0 -15.39 312.19 0 0 15.39 -19.45 0c-17.5,0 -31.53,3.17 -41.78,9.35 -7.69,4.22 -13.73,11.31 -18.1,21.42 -3.17,7.08 -4.83,25.79 -4.83,56.1l0 395.45c0,30.91 1.66,50.22 4.83,57.91 3.32,7.69 9.8,14.48 19.91,20.21 9.95,5.88 23.23,8.75 39.97,8.75l19.45 0 0 15.38 -312.19 0 0 -15.38 19.45 0c17.5,0 31.52,-3.17 41.78,-9.35 7.69,-4.23 13.72,-11.32 18.1,-21.42 3.17,-7.09 4.82,-25.79 4.82,-56.1l0 -186.42 -212.65 0zm805.82 -318.52c95.47,-3.47 173.14,24.28 232.87,83.4 59.72,59.27 89.58,133.17 89.58,222.15 0,75.86 -22.32,142.68 -66.81,200.44 -58.97,76.47 -142.22,114.77 -249.91,114.77 -107.98,0 -191.38,-36.49 -250.35,-109.49 -46.61,-57.76 -69.98,-126.08 -69.98,-205.26 0,-88.99 30.31,-163.04 90.94,-222.31 60.63,-59.42 135.13,-87.17 223.66,-83.7zm5.28 28.05c-55.05,0 -96.82,27.9 -125.63,83.85 -23.38,45.85 -34.99,111.76 -34.99,197.73 0,102.1 18.1,177.66 54.14,226.52 25.19,34.09 60.33,51.13 105.58,51.13 30.46,0 55.95,-7.39 76.31,-22.02 25.94,-18.85 46.3,-49.01 60.78,-90.34 14.48,-41.32 21.72,-95.31 21.72,-161.67 0,-79.18 -7.39,-138.46 -22.17,-177.67 -14.78,-39.36 -33.63,-67.11 -56.56,-83.25 -22.92,-16.14 -49.32,-24.28 -79.18,-24.28zm579.45 35.74l-233.47 0 0 -26.7 233.47 0 0 26.7zm389.11 -69.22l-8.14 24.28c-42.08,30.01 -76.92,64.85 -104.52,104.67 -42.38,61.23 -76.92,135.73 -103.46,223.66 -26.7,87.78 -39.97,170.27 -39.97,247.34 0,49.17 11.77,102.26 35.29,158.96l-8.14 25.64c-79.03,-106.02 -118.54,-211.6 -118.54,-317.02 0,-60.63 13.27,-120.65 39.66,-180.07 31.22,-69.53 77.52,-131.22 138.75,-185.06 46.76,-41.17 103.16,-75.26 169.07,-102.4zm344.17 209.03l-86.87 293.64 -9.05 35.75c-0.9,4.37 -1.35,7.69 -1.35,9.8 0,3.47 1.2,6.49 3.77,9.2 2.41,2.56 4.97,3.92 7.54,3.92 6.03,0 14.48,-4.67 25.18,-14.02 4.38,-3.93 14.78,-17.35 31.37,-40.57l15.39 7.99c-20.97,38.16 -43.14,65.91 -66.82,83.4 -23.52,17.5 -49.01,26.24 -76.31,26.24 -16.74,0 -29.41,-4.22 -38.31,-12.82 -8.74,-8.59 -13.12,-19.45 -13.12,-32.57 0,-11.46 4.83,-32.73 14.48,-63.95l10.71 -35.89c-34.24,58.66 -67.12,100.14 -98.64,124.27 -18.25,14.03 -37.7,20.96 -58.36,20.96 -27.15,0 -46.76,-11.16 -58.97,-33.33 -12.07,-22.17 -18.1,-47.35 -18.1,-75.26 0,-41.47 12.67,-89.13 38.16,-142.82 25.48,-53.84 58.97,-96.98 100.44,-129.7 34.09,-27 66.06,-40.57 96.07,-40.57 16.59,0 29.86,4.82 39.97,14.32 10.1,9.66 17.49,27 22.17,52.34l16.29 -54 104.36 -6.33zm-141.77 84.31c0,-23.83 -3.77,-41.02 -11.16,-51.58 -5.43,-7.39 -12.67,-11.01 -21.87,-11.01 -9.35,0 -18.85,4.37 -28.65,13.27 -19.91,18.1 -41.48,55.05 -64.55,110.7 -23.08,55.65 -34.54,103.61 -34.54,144.18 0,15.54 2.57,26.85 7.84,33.64 5.13,6.93 10.86,10.4 17.05,10.4 13.42,0 26.84,-7.69 40.57,-22.92 19.45,-21.72 37.1,-48.26 52.78,-79.63 28.36,-55.2 42.53,-104.22 42.53,-147.05zm590.3 -77.98l-124.72 451.1c-8.45,30.92 -13.58,50.38 -15.24,58.52 -2.56,12.97 -3.92,23.98 -3.92,32.88 0,9.35 3.77,16.89 11.46,22.77 10.41,8.15 26.85,12.97 49.17,14.78l-3.62 10.86 -237.99 0 3.62 -10.86c17.19,-2.86 30.01,-7.09 38.31,-12.82 8.29,-5.73 15.68,-15.38 22.17,-28.95 6.33,-13.58 13.72,-36.5 21.87,-68.78l56.7 -200.59c-32.72,56.56 -63.04,95.32 -90.94,116.28 -21.57,15.84 -42.98,23.83 -64.4,23.83 -21.26,0 -38.31,-7.99 -51.13,-23.83 -17.19,-21.26 -25.79,-49.92 -25.79,-86.11 0,-38.01 8.6,-77.82 25.79,-119.45 17.2,-41.63 39.97,-78.43 68.17,-110.4 28.21,-31.97 56.71,-55.35 85.37,-70.43 14.47,-7.69 30.76,-11.46 49.01,-11.46 17.95,0 32.58,5.12 43.74,15.53 11.16,10.26 18.85,27.15 23.23,50.68l15.68 -53.55 103.46 0zm-174.34 15.39c-10.26,0 -20.67,4.82 -31.22,14.63 -18.7,17.34 -37.86,51.58 -57.16,102.86 -23.38,62.89 -34.99,112.51 -34.99,148.7 0,15.39 3.16,27.3 9.35,35.75 4.52,6.18 10.4,9.35 17.49,9.35 9.96,0 19.91,-4.68 30.02,-14.18 23.82,-22.02 47.2,-58.82 70.13,-110.4 22.92,-51.43 34.38,-93.2 34.38,-125.33 0,-20.36 -3.92,-35.59 -11.76,-46 -7.84,-10.25 -16.59,-15.38 -26.24,-15.38zm92.9 553.8l8.14 -24.28c33.78,-24.13 62.29,-50.67 85.66,-79.48 23.38,-28.81 47.36,-68.77 71.94,-119.9 24.74,-50.98 44.8,-105.72 60.33,-163.94 20.06,-75.71 30.01,-146.44 30.01,-212.35 0,-49.17 -11.76,-102.41 -35.29,-159.42l8.15 -25.18c79.03,106.02 118.54,211.44 118.54,316.56 0,60.93 -13.27,121.11 -39.66,180.53 -30.92,69.23 -77.22,130.76 -138.76,184.6 -46.75,41.18 -103.16,75.41 -169.06,102.86z"/>
   <path fill="black" fill-rule="nonzero" d="M13097.09 2176.05l-293.17 0 0 -103.9 293.17 0 0 103.9zm450.22 184.13l-400.84 0 0 -11.14c123.44,-146.25 198.19,-244.66 224.25,-295.24 26.06,-50.57 39.09,-99.95 39.09,-148.13 0,-35.14 -10.97,-64.46 -32.75,-87.6 -21.77,-23.32 -48.34,-34.98 -79.89,-34.98 -51.61,0 -91.55,25.89 -120.01,77.49l-18.69 -6.51c18.17,-64.46 45.6,-112.13 82.47,-142.99 36.86,-30.86 79.38,-46.29 127.55,-46.29 34.46,0 66.01,8.06 94.47,24.18 28.46,15.94 50.75,38.06 66.69,66 16.12,27.95 24.18,54.18 24.18,78.7 0,44.4 -12.35,89.66 -37.04,135.61 -33.77,61.89 -107.67,148.3 -221.33,259.23l147.1 0c36.17,0 59.66,-1.54 70.46,-4.46 10.97,-3.08 19.89,-8.06 26.92,-15.26 7.03,-7.2 16.11,-22.11 27.6,-45.09l18.17 0 -38.4 196.48zm241.05 -341.52l0 -17.49c38.24,-10.97 64.64,-21.26 79.38,-30.86 14.75,-9.6 27.61,-24.17 38.24,-43.72 10.8,-19.54 16.11,-39.43 16.11,-59.49 0,-27.77 -10.11,-51.61 -30.51,-71.67 -20.24,-19.88 -45.61,-29.83 -75.78,-29.83 -47.15,0 -87.1,24.86 -120.02,74.41l-18.51 -6.51c24.17,-56.07 55.03,-98.24 92.75,-126.36 37.72,-28.29 79.72,-42.35 126.01,-42.35 47.15,0 86.24,14.4 116.93,43.21 30.69,28.8 45.95,62.57 45.95,101.15 0,25.03 -7.03,49.38 -21.26,72.52 -14.06,23.32 -36.35,43.89 -66.69,61.72 38.91,19.03 68.57,42.52 89.15,70.47 20.4,27.94 30.69,63.09 30.69,105.27 0,70.8 -25.72,131.15 -76.98,180.87 -51.44,49.72 -120.36,74.58 -206.6,74.58 -57.6,0 -99.61,-9.6 -126.01,-28.63 -19.03,-13.37 -28.63,-30.52 -28.63,-51.61 0,-15.25 5.49,-28.46 16.63,-39.26 10.97,-10.8 23.66,-16.28 38.06,-16.28 11.14,0 21.43,2.4 31.2,7.03 5.32,2.57 24.35,17.31 57.1,43.71 32.57,26.58 63.26,39.78 91.72,39.78 24.69,0 45.95,-9.77 63.78,-29.32 17.66,-19.54 26.57,-44.4 26.57,-74.58 0,-45.77 -16.11,-88.12 -48.17,-126.7 -32.24,-38.57 -79.21,-65.32 -141.11,-80.06zm838.38 1.03c0,68.06 -9.6,131.5 -28.63,190.47 -11.32,36.18 -26.75,65.84 -45.95,88.98 -19.2,23.15 -40.98,41.5 -65.49,55.04 -24.35,13.54 -51.09,20.4 -79.73,20.4 -32.91,0 -62.4,-8.4 -88.98,-25.2 -26.4,-16.63 -49.89,-40.63 -70.29,-71.84 -14.57,-22.8 -27.6,-53.15 -38.58,-91.04 -14.4,-51.26 -21.6,-104.24 -21.6,-158.76 0,-74.06 10.46,-142.12 31.21,-204.02 16.97,-51.43 42.86,-90.69 77.66,-117.95 34.8,-27.26 71.67,-40.98 110.58,-40.98 39.44,0 76.3,13.55 110.59,40.46 34.29,26.92 59.49,63.27 75.61,108.87 22.45,62.58 33.6,131.16 33.6,205.57zm-154.3 -1.03c0,-119.16 -0.69,-188.59 -2.06,-208.48 -3.26,-46.46 -11.32,-78.01 -24,-94.3 -8.4,-10.8 -21.95,-16.11 -40.81,-16.11 -14.4,0 -25.71,3.94 -34.12,12 -12.51,11.83 -20.74,32.4 -25.2,62.06 -4.28,29.66 -6.51,133.05 -6.51,310.15 0,96.35 3.43,160.99 10.11,193.73 4.97,23.84 12.18,39.78 21.6,47.84 9.26,8.06 21.78,12 37.21,12 16.63,0 29.32,-5.32 37.72,-16.12 14.06,-18.68 22.11,-47.66 24,-86.75l2.06 -216.02z"/>
   <path fill="black" fill-rule="nonzero" d="M13093.49 3521.52l-293.17 0 0 -103.9 293.17 0 0 103.9zm374.96 -200.25c48,35.14 81.43,67.89 100.12,98.24 18.69,30.17 27.95,64.97 27.95,104.06 0,55.04 -20.75,101.5 -62.07,139.39 -41.32,38.06 -97.55,57.09 -168.7,57.09 -67.38,0 -119.33,-16.63 -156.19,-49.89 -36.86,-33.26 -55.38,-73.72 -55.38,-121.73 0,-36.69 10.63,-68.75 31.89,-96.18 21.26,-27.6 56.58,-52.63 106.13,-75.61 -54.01,-40.63 -88.64,-74.06 -103.9,-100.12 -15.26,-26.06 -22.8,-56.41 -22.8,-90.87 0,-45.6 19.37,-85.72 58.12,-120.35 38.58,-34.64 91.72,-51.95 158.93,-51.95 65.15,0 115.04,15.26 150.19,45.95 34.97,30.69 52.46,67.37 52.46,110.24 0,32.23 -9.43,60.52 -28.46,85.21 -18.86,24.51 -48.35,46.8 -88.29,66.52zm-38.58 -25.38c12.52,-16.63 21.77,-35.49 27.95,-56.06 6,-20.75 9.08,-43.55 9.08,-68.24 0,-43.54 -9.43,-76.8 -28.11,-99.78 -14.23,-17.66 -33.61,-26.57 -58.47,-26.57 -22.46,0 -41.66,8.06 -57.43,24.17 -15.78,16.29 -23.66,36.35 -23.66,60.35 0,24.35 8.91,49.55 26.57,75.78 17.66,26.23 52.29,56.23 104.07,90.35zm-99.61 104.58c-10.46,9.43 -17.83,18.01 -22.29,25.72 -6.68,11.83 -12.69,28.98 -18.17,51.44 -5.32,22.63 -8.06,46.12 -8.06,70.63 0,31.72 3.94,58.29 12,79.55 8.06,21.43 19.55,36.86 34.29,46.29 14.92,9.43 30.18,14.06 45.95,14.06 24.34,0 44.92,-9.08 61.72,-27.09 16.63,-18 25.03,-42.69 25.03,-74.06 0.51,-65.49 -42.86,-127.73 -130.47,-186.54zm652.53 -79.2c48,35.14 81.43,67.89 100.12,98.24 18.69,30.17 27.95,64.97 27.95,104.06 0,55.04 -20.75,101.5 -62.07,139.39 -41.32,38.06 -97.55,57.09 -168.7,57.09 -67.38,0 -119.33,-16.63 -156.19,-49.89 -36.86,-33.26 -55.38,-73.72 -55.38,-121.73 0,-36.69 10.63,-68.75 31.89,-96.18 21.26,-27.6 56.58,-52.63 106.13,-75.61 -54.01,-40.63 -88.64,-74.06 -103.9,-100.12 -15.26,-26.06 -22.8,-56.41 -22.8,-90.87 0,-45.6 19.37,-85.72 58.12,-120.35 38.58,-34.64 91.72,-51.95 158.93,-51.95 65.15,0 115.04,15.26 150.19,45.95 34.97,30.69 52.46,67.37 52.46,110.24 0,32.23 -9.43,60.52 -28.46,85.21 -18.86,24.51 -48.35,46.8 -88.29,66.52zm-38.58 -25.38c12.52,-16.63 21.77,-35.49 27.95,-56.06 6,-20.75 9.08,-43.55 9.08,-68.24 0,-43.54 -9.43,-76.8 -28.11,-99.78 -14.23,-17.66 -33.61,-26.57 -58.47,-26.57 -22.46,0 -41.66,8.06 -57.43,24.17 -15.78,16.29 -23.66,36.35 -23.66,60.35 0,24.35 8.91,49.55 26.57,75.78 17.66,26.23 52.29,56.23 104.07,90.35zm-99.61 104.58c-10.46,9.43 -17.83,18.01 -22.29,25.72 -6.68,11.83 -12.69,28.98 -18.17,51.44 -5.32,22.63 -8.06,46.12 -8.06,70.63 0,31.72 3.94,58.29 12,79.55 8.06,21.43 19.55,36.86 34.29,46.29 14.92,9.43 30.18,14.06 45.95,14.06 24.34,0 44.92,-9.08 61.72,-27.09 16.63,-18 25.03,-42.69 25.03,-74.06 0.51,-65.49 -42.86,-127.73 -130.47,-186.54zm785.74 -390.21l0 14.4c-60.69,15.43 -109.38,35.15 -146.07,59.5 -36.69,24.17 -65.67,53.66 -86.93,88.29 -21.26,34.46 -37.71,77.49 -49.54,128.59 14.74,-9.95 27.08,-16.46 36.86,-19.55 21.77,-6.69 43.72,-9.94 65.83,-9.94 51.09,0 93.61,18.51 127.73,55.55 34.12,37.03 51.09,87.61 51.09,151.55 0,44.92 -9.26,86.24 -27.6,123.79 -18.52,37.55 -44.75,66.52 -78.52,86.92 -33.95,20.4 -70.13,30.69 -108.7,30.69 -42.01,0 -80.75,-11.49 -116.41,-34.46 -35.49,-22.97 -63.27,-56.58 -83.16,-100.64 -20.05,-44.23 -30,-92.41 -30,-144.36 0,-76.29 18.35,-147.44 55.04,-213.28 36.69,-66 88.8,-118.47 156.35,-157.38 67.55,-39.09 145.56,-58.98 234.03,-59.67zm-289.06 331.41c-2.74,46.46 -4.11,80.41 -4.11,101.84 0,46.46 4.45,91.38 13.37,134.76 8.91,43.37 21.26,73.72 36.69,91.2 11.14,12.52 24.34,18.69 39.43,18.69 15.43,0 29.32,-8.91 41.49,-26.91 12.17,-18.01 18.17,-54.7 18.17,-109.73 0,-92.75 -11.31,-156.87 -33.94,-192.19 -14.4,-22.8 -33.95,-34.29 -58.47,-34.29 -13.54,0 -31.03,5.48 -52.63,16.63z"/>
   <path fill="black" fill-rule="nonzero" d="M13097.09 4866.99l-293.17 0 0 -103.9 293.17 0 0 103.9zm56.58 198.53l0 -14.4c55.55,-12.69 102.7,-31.55 141.27,-56.41 38.58,-24.86 69.27,-55.54 91.9,-92.06 22.46,-36.69 38.23,-78.7 47.32,-126.36 -20.75,10.46 -38.41,17.66 -52.98,21.77 -14.57,4.12 -30,6.18 -45.95,6.18 -51.6,0 -94.64,-18.52 -128.93,-55.55 -34.46,-37.21 -51.6,-87.95 -51.6,-152.42 0,-44.75 9.26,-85.72 27.77,-123.1 18.52,-37.2 45.09,-66 79.38,-86.58 34.46,-20.57 70.12,-30.86 107.33,-30.86 39.6,0 77.32,11.32 112.64,34.12 35.49,22.8 63.6,55.89 84.69,99.1 21.09,43.2 31.55,92.41 31.55,147.78 0,71.67 -17.15,140.42 -51.26,206.08 -34.29,65.67 -85.21,118.47 -152.93,158.08 -67.73,39.77 -147.79,61.2 -240.2,64.63zm288.03 -330.89c2.74,-37.55 4.11,-70.47 4.11,-99.1 0,-61.03 -7.03,-117.78 -20.91,-170.41 -8.06,-29.15 -19.89,-50.58 -35.49,-64.47 -8.23,-7.37 -19.03,-10.97 -32.41,-10.97 -16.63,0 -29.48,7.2 -38.91,21.6 -12.86,19.72 -19.38,57.44 -19.38,113.16 0,92.92 10.98,156.87 33.09,192.02 14.4,22.8 33.78,34.29 58.29,34.29 13.03,0 30.18,-5.32 51.61,-16.12zm670.7 -24c0,68.06 -9.6,131.5 -28.63,190.47 -11.32,36.18 -26.75,65.84 -45.95,88.98 -19.2,23.15 -40.98,41.5 -65.49,55.04 -24.35,13.54 -51.09,20.4 -79.73,20.4 -32.91,0 -62.4,-8.4 -88.98,-25.2 -26.4,-16.63 -49.89,-40.63 -70.29,-71.84 -14.57,-22.8 -27.6,-53.15 -38.58,-91.04 -14.4,-51.26 -21.6,-104.24 -21.6,-158.76 0,-74.06 10.46,-142.12 31.21,-204.02 16.97,-51.43 42.86,-90.69 77.66,-117.95 34.8,-27.26 71.67,-40.98 110.58,-40.98 39.44,0 76.3,13.55 110.59,40.46 34.29,26.92 59.49,63.27 75.61,108.87 22.45,62.58 33.6,131.16 33.6,205.57zm-154.3 -1.03c0,-119.16 -0.69,-188.59 -2.06,-208.48 -3.26,-46.46 -11.32,-78.01 -24,-94.3 -8.4,-10.8 -21.95,-16.11 -40.81,-16.11 -14.4,0 -25.71,3.94 -34.12,12 -12.51,11.83 -20.74,32.4 -25.2,62.06 -4.28,29.66 -6.51,133.05 -6.51,310.15 0,96.35 3.43,160.99 10.11,193.73 4.97,23.84 12.18,39.78 21.6,47.84 9.26,8.06 21.78,12 37.21,12 16.63,0 29.32,-5.32 37.72,-16.12 14.06,-18.68 22.11,-47.66 24,-86.75l2.06 -216.02zm224.25 355.92l0 -14.4c55.55,-12.69 102.7,-31.55 141.27,-56.41 38.58,-24.86 69.27,-55.54 91.9,-92.06 22.46,-36.69 38.23,-78.7 47.32,-126.36 -20.75,10.46 -38.41,17.66 -52.98,21.77 -14.57,4.12 -30,6.18 -45.95,6.18 -51.6,0 -94.64,-18.52 -128.93,-55.55 -34.46,-37.21 -51.6,-87.95 -51.6,-152.42 0,-44.75 9.26,-85.72 27.77,-123.1 18.52,-37.2 45.09,-66 79.38,-86.58 34.46,-20.57 70.12,-30.86 107.33,-30.86 39.6,0 77.32,11.32 112.64,34.12 35.49,22.8 63.6,55.89 84.69,99.1 21.09,43.2 31.55,92.41 31.55,147.78 0,71.67 -17.15,140.42 -51.26,206.08 -34.29,65.67 -85.21,118.47 -152.93,158.08 -67.73,39.77 -147.79,61.2 -240.2,64.63zm288.03 -330.89c2.74,-37.55 4.11,-70.47 4.11,-99.1 0,-61.03 -7.03,-117.78 -20.91,-170.41 -8.06,-29.15 -19.89,-50.58 -35.49,-64.47 -8.23,-7.37 -19.03,-10.97 -32.41,-10.97 -16.63,0 -29.48,7.2 -38.91,21.6 -12.86,19.72 -19.38,57.44 -19.38,113.16 0,92.92 10.98,156.87 33.09,192.02 14.4,22.8 33.78,34.29 58.29,34.29 13.03,0 30.18,-5.32 51.61,-16.12z"/>
   <path fill="black" fill-rule="nonzero" d="M13093.49 6212.46l-293.17 0 0 -103.9 293.17 0 0 103.9zm450.22 184.13l-400.84 0 0 -11.14c123.44,-146.25 198.19,-244.66 224.25,-295.24 26.06,-50.57 39.09,-99.95 39.09,-148.13 0,-35.14 -10.97,-64.46 -32.75,-87.6 -21.77,-23.32 -48.34,-34.98 -79.89,-34.98 -51.61,0 -91.55,25.89 -120.01,77.49l-18.69 -6.51c18.17,-64.46 45.6,-112.13 82.47,-142.99 36.86,-30.86 79.38,-46.29 127.55,-46.29 34.46,0 66.01,8.06 94.47,24.18 28.46,15.94 50.75,38.06 66.69,66 16.12,27.95 24.18,54.18 24.18,78.7 0,44.4 -12.35,89.66 -37.04,135.61 -33.77,61.89 -107.67,148.3 -221.33,259.23l147.1 0c36.17,0 59.66,-1.54 70.46,-4.46 10.97,-3.08 19.89,-8.06 26.92,-15.26 7.03,-7.2 16.11,-22.11 27.6,-45.09l18.17 0 -38.4 196.48zm439.08 -384.38c48,35.14 81.43,67.89 100.12,98.24 18.69,30.17 27.95,64.97 27.95,104.06 0,55.04 -20.75,101.5 -62.07,139.39 -41.32,38.06 -97.55,57.09 -168.7,57.09 -67.38,0 -119.33,-16.63 -156.19,-49.89 -36.86,-33.26 -55.38,-73.72 -55.38,-121.73 0,-36.69 10.63,-68.75 31.89,-96.18 21.26,-27.6 56.58,-52.63 106.13,-75.61 -54.01,-40.63 -88.64,-74.06 -103.9,-100.12 -15.26,-26.06 -22.8,-56.41 -22.8,-90.87 0,-45.6 19.37,-85.72 58.12,-120.35 38.58,-34.64 91.72,-51.95 158.93,-51.95 65.15,0 115.04,15.26 150.19,45.95 34.97,30.69 52.46,67.37 52.46,110.24 0,32.23 -9.43,60.52 -28.46,85.21 -18.86,24.51 -48.35,46.8 -88.29,66.52zm-38.58 -25.38c12.52,-16.63 21.77,-35.49 27.95,-56.06 6,-20.75 9.08,-43.55 9.08,-68.24 0,-43.54 -9.43,-76.8 -28.11,-99.78 -14.23,-17.66 -33.61,-26.57 -58.47,-26.57 -22.46,0 -41.66,8.06 -57.43,24.17 -15.78,16.29 -23.66,36.35 -23.66,60.35 0,24.35 8.91,49.55 26.57,75.78 17.66,26.23 52.29,56.23 104.07,90.35zm-99.61 104.58c-10.46,9.43 -17.83,18.01 -22.29,25.72 -6.68,11.83 -12.69,28.98 -18.17,51.44 -5.32,22.63 -8.06,46.12 -8.06,70.63 0,31.72 3.94,58.29 12,79.55 8.06,21.43 19.55,36.86 34.29,46.29 14.92,9.43 30.18,14.06 45.95,14.06 24.34,0 44.92,-9.08 61.72,-27.09 16.63,-18 25.03,-42.69 25.03,-74.06 0.51,-65.49 -42.86,-127.73 -130.47,-186.54zm785.74 -390.21l0 14.4c-60.69,15.43 -109.38,35.15 -146.07,59.5 -36.69,24.17 -65.67,53.66 -86.93,88.29 -21.26,34.46 -37.71,77.49 -49.54,128.59 14.74,-9.95 27.08,-16.46 36.86,-19.55 21.77,-6.69 43.72,-9.94 65.83,-9.94 51.09,0 93.61,18.51 127.73,55.55 34.12,37.03 51.09,87.61 51.09,151.55 0,44.92 -9.26,86.24 -27.6,123.79 -18.52,37.55 -44.75,66.52 -78.52,86.92 -33.95,20.4 -70.13,30.69 -108.7,30.69 -42.01,0 -80.75,-11.49 -116.41,-34.46 -35.49,-22.97 -63.27,-56.58 -83.16,-100.64 -20.05,-44.23 -30,-92.41 -30,-144.36 0,-76.29 18.35,-147.44 55.04,-213.28 36.69,-66 88.8,-118.47 156.35,-157.38 67.55,-39.09 145.56,-58.98 234.03,-59.67zm-289.06 331.41c-2.74,46.46 -4.11,80.41 -4.11,101.84 0,46.46 4.45,91.38 13.37,134.76 8.91,43.37 21.26,73.72 36.69,91.2 11.14,12.52 24.34,18.69 39.43,18.69 15.43,0 29.32,-8.91 41.49,-26.91 12.17,-18.01 18.17,-54.7 18.17,-109.73 0,-92.75 -11.31,-156.87 -33.94,-192.19 -14.4,-22.8 -33.95,-34.29 -58.47,-34.29 -13.54,0 -31.03,5.48 -52.63,16.63z"/>
  </g>
 </g>
</svg>
